<?xml version="1.0" encoding="UTF-8" standalone="no"?>
<!-- Created with Inkscape (http://www.inkscape.org/) -->

<svg
   width="17.816078mm"
   height="17.816078mm"
   viewBox="0 0 17.816078 17.816078"
   version="1.1"
   id="svg1"
   xml:space="preserve"
   inkscape:version="1.3 (0e150ed6c4, 2023-07-21)"
   sodipodi:docname="logo.svg"
   xmlns:inkscape="http://www.inkscape.org/namespaces/inkscape"
   xmlns:sodipodi="http://sodipodi.sourceforge.net/DTD/sodipodi-0.dtd"
   xmlns:xlink="http://www.w3.org/1999/xlink"
   xmlns="http://www.w3.org/2000/svg"
   xmlns:svg="http://www.w3.org/2000/svg"><sodipodi:namedview
     id="namedview1"
     pagecolor="#ffffff"
     bordercolor="#111111"
     borderopacity="1"
     inkscape:showpageshadow="0"
     inkscape:pageopacity="0"
     inkscape:pagecheckerboard="1"
     inkscape:deskcolor="#d1d1d1"
     inkscape:document-units="mm"
     inkscape:zoom="2.768771"
     inkscape:cx="12.099231"
     inkscape:cy="62.663181"
     inkscape:window-width="1920"
     inkscape:window-height="991"
     inkscape:window-x="-9"
     inkscape:window-y="-9"
     inkscape:window-maximized="1"
     inkscape:current-layer="layer1" /><defs
     id="defs1"><linearGradient
       id="linearGradient55"
       inkscape:collect="always"><stop
         style="stop-color:#89b4fa;stop-opacity:1;"
         offset="0"
         id="stop55" /><stop
         style="stop-color:#1e66f5;stop-opacity:0.66666669;"
         offset="1"
         id="stop56" /></linearGradient><linearGradient
       id="linearGradient53"
       inkscape:collect="always"><stop
         style="stop-color:#1e66f5;stop-opacity:1;"
         offset="0"
         id="stop53" /><stop
         style="stop-color:#89b4fa;stop-opacity:0.66666669;"
         offset="1"
         id="stop54" /></linearGradient><linearGradient
       inkscape:collect="always"
       xlink:href="#linearGradient53"
       id="linearGradient54"
       x1="153.07123"
       y1="84.819595"
       x2="165.68129"
       y2="84.819595"
       gradientUnits="userSpaceOnUse" /><linearGradient
       inkscape:collect="always"
       xlink:href="#linearGradient55"
       id="linearGradient56"
       x1="152.34619"
       y1="84.819595"
       x2="166.40633"
       y2="84.819595"
       gradientUnits="userSpaceOnUse" /></defs><g
     inkscape:label="Layer 1"
     inkscape:groupmode="layer"
     id="layer1"
     transform="translate(-47.815641,-162.49085)"><text
       xml:space="preserve"
       style="font-style:normal;font-variant:normal;font-weight:normal;font-stretch:normal;font-size:2.64583px;font-family:'Lucida Handwriting';-inkscape-font-specification:'Lucida Handwriting, Normal';font-variant-ligatures:normal;font-variant-caps:normal;font-variant-numeric:normal;font-variant-east-asian:normal;text-align:center;letter-spacing:0.264583px;word-spacing:0px;text-anchor:middle;fill:#89b4fa;fill-opacity:1;stroke:#000000;stroke-width:0.529167;stroke-dasharray:none;stroke-opacity:1"
       x="59.4034"
       y="169.64276"
       id="text52"><tspan
         sodipodi:role="line"
         id="tspan52"
         style="stroke-width:0.529167"
         x="59.4034"
         y="169.64276" /></text><g
       id="g81"><rect
         style="fill:url(#linearGradient56);fill-opacity:1;stroke:none;stroke-width:0.0186005;stroke-dasharray:none"
         id="rect39"
         width="14.060137"
         height="14.060137"
         x="152.34619"
         y="77.789528"
         transform="rotate(43.666492)"
         ry="2.4975388" /><rect
         style="fill:url(#linearGradient54);fill-opacity:1;stroke:none;stroke-width:0.0166821;stroke-dasharray:none"
         id="rect37"
         width="12.610058"
         height="12.610058"
         x="153.07123"
         y="78.514565"
         transform="rotate(43.666492)"
         ry="2.274858" /><g
         id="g53"
         transform="matrix(0.91348074,0,0,0.91348074,5.4899797,15.049782)"><g
           id="g48"
           transform="translate(7.8176996,41.263625)"
           style="fill:#ffffff;stroke:none;stroke-width:0.0132292"><g
             id="g45"
             style="stroke:none"><path
               style="color:#000000;-inkscape-font-specification:'Lucida Handwriting, Normal';stroke:none;-inkscape-stroke:none"
               d="m 46.353776,133.26033 q -0.290003,-0.13268 -0.78661,-0.13268 -0.405625,0 -0.807459,0.0626 l -0.115622,0.0171 q -0.163008,0.0246 -0.208499,0.0246 -0.136472,0 -0.136472,-0.16491 0,-0.0531 0.01327,-0.15353 0.642556,-0.42079 1.105044,-0.98942 0.462489,-0.57053 0.462489,-0.94203 0,-0.36772 -0.405626,-0.36772 -0.460593,0 -0.809354,0.52504 -0.02275,-0.10994 -0.02275,-0.17817 0,-0.22746 0.308958,-0.42648 0.308957,-0.20092 0.66151,-0.20092 0.307062,0 0.494711,0.14785 0.187649,0.14595 0.187649,0.38667 0,0.70321 -1.542892,1.98453 0.644451,-0.0872 1.069031,-0.0872 0.314644,0 0.411311,0.0891 0.09667,0.0891 0.121309,0.40563 z m 2.340331,-1.07282 -0.05876,0.29379 q -0.06634,0.3355 -0.06634,0.50609 0,0.13647 0.04928,0.22366 -0.140263,0.0682 -0.25399,0.0682 -0.174381,0 -0.174381,-0.22555 0,-0.10236 0.07203,-0.46249 l 0.0815,-0.40373 q -0.291898,0.0227 -0.665301,0.0796 l -0.09856,0.0152 q -0.265362,0.0379 -0.316539,0.0379 -0.140263,0 -0.140263,-0.10046 0,-0.0758 0.02464,-0.21798 0.576215,-0.78471 0.801773,-1.67936 0.180067,-0.0474 0.282421,-0.0474 0.09288,0 0.09288,0.0682 0,0.13079 -0.288108,0.64445 -0.288107,0.51367 -0.642555,1.01406 0.547783,-0.10425 1.014062,-0.14215 l 0.14595,-0.72785 q 0.01895,-0.0986 0.02464,-0.1251 0.02654,-0.1251 0.02654,-0.19523 0,-0.0777 -0.01516,-0.13648 0.10804,-0.0379 0.195231,-0.0379 0.176276,0 0.176276,0.1687 0,0.0682 -0.05497,0.32222 -0.03033,0.14595 -0.0398,0.18955 l -0.10804,0.5421 q 0.0853,-0.008 0.151635,-0.008 0.29948,0 0.388566,0.0891 0.09098,0.0872 0.117518,0.40373 -0.231244,-0.12889 -0.722165,-0.15732 z m 2.046538,1.09177 q -0.371507,0 -0.593274,-0.27863 -0.219871,-0.28052 -0.219871,-0.75249 0,-0.77523 0.437847,-1.34387 0.439743,-0.57053 1.038704,-0.57053 0.390461,0 0.612228,0.27863 0.221767,0.27863 0.221767,0.76766 0,0.77524 -0.443534,1.33818 -0.443534,0.56105 -1.053867,0.56105 z m 0.155427,-0.21039 q 0.367716,0 0.648242,-0.48144 0.280526,-0.48334 0.280526,-1.11452 0,-0.92498 -0.568634,-0.92498 -0.367716,0 -0.642555,0.47955 -0.27484,0.47765 -0.27484,1.11641 0,0.92498 0.557261,0.92498 z"
               id="path44" /><path
               style="color:#000000;-inkscape-font-specification:'Lucida Handwriting, Normal';stroke:none;-inkscape-stroke:none"
               d="m 48.232422,130.26758 c -0.06926,0 -0.164813,0.0171 -0.285156,0.0488 h -0.0039 v 0.004 c -0.150157,0.59559 -0.417104,1.15523 -0.800781,1.67774 l -0.002,0.002 c -0.01646,0.095 -0.02539,0.1675 -0.02539,0.21875 0,0.035 0.01399,0.0641 0.03906,0.082 0.02507,0.018 0.06183,0.0254 0.109375,0.0254 0.03575,0 0.139439,-0.0118 0.316406,-0.0371 l 0.09961,-0.0156 c 0.245926,-0.0375 0.463491,-0.0649 0.65625,-0.0801 l -0.08008,0.39648 c -0.04804,0.24021 -0.07227,0.3931 -0.07227,0.46289 0,0.076 0.01455,0.13455 0.04492,0.17383 0.03037,0.0393 0.07717,0.0586 0.136718,0.0586 0.07714,0 0.161719,-0.0226 0.25586,-0.0684 l 0.0059,-0.002 -0.002,-0.008 c -0.03213,-0.0568 -0.04883,-0.12857 -0.04883,-0.21875 0,-0.11287 0.02222,-0.2824 0.06641,-0.50586 l 0.05664,-0.28711 c 0.322599,0.0193 0.56156,0.07 0.71289,0.1543 l 0.01172,0.006 v -0.0117 c -0.01774,-0.2116 -0.05779,-0.34753 -0.121094,-0.4082 -0.06201,-0.062 -0.192269,-0.0899 -0.392578,-0.0899 -0.04165,0 -0.08995,0.003 -0.142578,0.008 l 0.105469,-0.53516 c 0.0063,-0.0291 0.01884,-0.0922 0.03906,-0.18945 0.03667,-0.16947 0.05664,-0.27503 0.05664,-0.32227 0,-0.0574 -0.0159,-0.10317 -0.04687,-0.13281 -0.03097,-0.0296 -0.0769,-0.043 -0.136719,-0.043 -0.05909,0 -0.124714,0.0117 -0.197265,0.0371 l -0.0059,0.002 0.002,0.006 c 0.0099,0.0385 0.01367,0.0834 0.01367,0.13477 0,0.0459 -0.0077,0.11215 -0.02539,0.19531 -0.0038,0.0178 -0.01275,0.0592 -0.02539,0.125 l -0.144531,0.72266 c -0.305483,0.025 -0.638416,0.073 -0.996094,0.14062 0.233148,-0.32997 0.446779,-0.66526 0.636719,-1.00391 0.09609,-0.17132 0.166689,-0.31025 0.214843,-0.41796 0.04816,-0.10772 0.07422,-0.18249 0.07422,-0.22852 0,-0.0242 -0.01017,-0.044 -0.02734,-0.0566 -0.01718,-0.0126 -0.0405,-0.0195 -0.07227,-0.0195 z m 0,0.0137 c 0.03015,0 0.05067,0.006 0.06445,0.0156 0.01378,0.0101 0.02148,0.0256 0.02148,0.0469 0,0.0412 -0.02438,0.11555 -0.07227,0.22266 -0.04788,0.1071 -0.118867,0.24685 -0.214844,0.41796 -0.191953,0.34224 -0.406408,0.68027 -0.642578,1.01368 l -0.0098,0.0137 0.01563,-0.004 c 0.364995,-0.0695 0.703099,-0.11733 1.013672,-0.14258 h 0.0059 l 0.146485,-0.73242 c 0.01263,-0.0657 0.01968,-0.1075 0.02344,-0.125 0.01775,-0.0836 0.02734,-0.14968 0.02734,-0.19726 0,-0.0493 -0.0065,-0.0906 -0.01563,-0.12891 0.06984,-0.0241 0.133398,-0.0371 0.189453,-0.0371 0.0577,0 0.09916,0.0125 0.126953,0.0391 0.02779,0.0266 0.04297,0.068 0.04297,0.12305 0,0.0437 -0.01807,0.15109 -0.05469,0.32031 -0.02022,0.0973 -0.03472,0.16045 -0.04102,0.18946 l -0.109375,0.55078 0.0098,-0.002 c 0.05671,-0.005 0.106433,-0.008 0.15039,-0.008 0.198997,0 0.327996,0.0311 0.384766,0.0879 0.05654,0.0542 0.09304,0.18924 0.111328,0.39063 -0.155955,-0.0839 -0.389229,-0.13762 -0.710938,-0.15625 h -0.0078 v 0.008 l -0.05859,0.29297 c -0.04427,0.22387 -0.06641,0.39323 -0.06641,0.50781 0,0.0886 0.01755,0.16031 0.04883,0.21875 -0.09104,0.0437 -0.172829,0.0664 -0.246094,0.0664 -0.0567,0 -0.09919,-0.0188 -0.126953,-0.0547 -0.02776,-0.0359 -0.04102,-0.0917 -0.04102,-0.16602 0,-0.0667 0.02232,-0.22096 0.07031,-0.46093 l 0.08398,-0.41211 -0.0078,0.002 c -0.194807,0.0152 -0.416956,0.0402 -0.666016,0.0781 l -0.09961,0.0156 c -0.176849,0.0253 -0.281968,0.0391 -0.314453,0.0391 -0.04597,0 -0.07988,-0.01 -0.101563,-0.0254 -0.02168,-0.0155 -0.0332,-0.0384 -0.0332,-0.0703 0,-0.0498 0.009,-0.12221 0.02539,-0.2168 0.382261,-0.52149 0.648401,-1.07951 0.798828,-1.67383 0.118588,-0.0311 0.212536,-0.0469 0.279297,-0.0469 z m 3.171875,0.0449 c -0.401407,0 -0.750874,0.19272 -1.044922,0.57422 -0.292784,0.38024 -0.439453,0.82959 -0.439453,1.34766 0,0.31567 0.07496,0.56743 0.222656,0.75586 0.148965,0.18716 0.348332,0.28125 0.597656,0.28125 0.408915,0 0.76199,-0.18731 1.058594,-0.5625 0.296603,-0.37646 0.445313,-0.82371 0.445313,-1.3418 0,-0.32702 -0.07364,-0.58621 -0.222657,-0.77344 -0.149022,-0.18723 -0.355307,-0.28125 -0.617187,-0.28125 z m -5.791016,0.002 c -0.236291,0 -0.45908,0.0666 -0.666015,0.20118 -0.206937,0.1333 -0.3125,0.277 -0.3125,0.43164 0,0.0462 0.0082,0.10613 0.02344,0.17968 l 0.0039,0.0156 0.0078,-0.0137 c 0.231764,-0.34891 0.500139,-0.52149 0.804687,-0.52149 0.134209,0 0.23285,0.03 0.298828,0.0898 0.06598,0.0598 0.09961,0.15012 0.09961,0.27148 0,0.24492 -0.153054,0.55769 -0.460938,0.9375 -0.307882,0.37854 -0.675679,0.70811 -1.103515,0.98828 l -0.002,0.002 v 0.002 c -0.0089,0.0671 -0.01367,0.11835 -0.01367,0.1543 0,0.0559 0.01103,0.0998 0.03516,0.1289 0.02413,0.0292 0.0606,0.043 0.107422,0.043 0.03152,0 0.100223,-0.007 0.208984,-0.0234 l 0.115235,-0.0176 c 0.267554,-0.0417 0.536564,-0.0625 0.80664,-0.0625 0.330482,0 0.59312,0.043 0.785156,0.13085 l -0.002,-0.004 0.01172,-0.002 c -1.43e-4,-0.002 1.47e-4,-0.002 0,-0.004 h -0.002 c -0.01677,-0.20802 -0.05661,-0.34502 -0.123047,-0.40625 -0.06707,-0.0618 -0.205629,-0.0898 -0.416016,-0.0898 -0.278829,0 -0.630421,0.0277 -1.050781,0.084 0.50537,-0.42107 0.889988,-0.79564 1.144531,-1.12305 0.257614,-0.33135 0.386719,-0.61474 0.386719,-0.85156 0,-0.1622 -0.06296,-0.2942 -0.189453,-0.39258 -0.126477,-0.0996 -0.292277,-0.14843 -0.498047,-0.14844 z m 0,0.0117 c 0.203646,0 0.366513,0.049 0.490235,0.14649 0.123708,0.0962 0.185546,0.22405 0.185546,0.38281 0,0.23198 -0.128081,0.51359 -0.384765,0.84375 -0.256025,0.32931 -0.640253,0.70724 -1.152344,1.13281 -0.0013,0.001 -0.0026,8.6e-4 -0.0039,0.002 l -0.01758,0.0156 0.02344,-0.004 c 0.429443,-0.0581 0.783806,-0.0879 1.066406,-0.0879 0.209139,0 0.346389,0.0309 0.408204,0.0879 0.06024,0.0555 0.09807,0.19116 0.115234,0.39258 -0.193599,-0.086 -0.451393,-0.13086 -0.777344,-0.13086 -0.270756,0 -0.54037,0.0207 -0.808594,0.0625 l -0.115234,0.0176 c -0.108582,0.0164 -0.177896,0.0234 -0.207031,0.0234 -0.04416,0 -0.07629,-0.0132 -0.09766,-0.0391 -0.02136,-0.0258 -0.03125,-0.0651 -0.03125,-0.11914 0,-0.034 0.0033,-0.0841 0.01172,-0.14844 0.427886,-0.28054 0.795322,-0.61131 1.103516,-0.99024 0.308768,-0.38089 0.464844,-0.6949 0.464844,-0.94531 0,-0.12379 -0.03429,-0.21849 -0.103516,-0.28125 -0.06923,-0.0628 -0.172386,-0.0937 -0.308594,-0.0937 -0.305943,0 -0.573274,0.1785 -0.804687,0.52149 -0.01348,-0.0675 -0.02148,-0.1257 -0.02148,-0.16797 0,-0.14865 0.101634,-0.28787 0.306641,-0.41992 0.205007,-0.13332 0.424425,-0.20118 0.658203,-0.20118 z m 5.791016,0 c 0.258734,0 0.460755,0.0931 0.607422,0.27735 0.14667,0.18428 0.21875,0.43865 0.21875,0.76367 0,0.51556 -0.146631,0.95985 -0.441407,1.33398 -0.294773,0.37288 -0.643966,0.5586 -1.048828,0.5586 -0.246017,0 -0.441166,-0.093 -0.58789,-0.27735 -0.14547,-0.18559 -0.21875,-0.43442 -0.21875,-0.74804 0,-0.51558 0.146489,-0.96191 0.4375,-1.33985 0.292275,-0.3792 0.635996,-0.56836 1.033203,-0.56836 z m -0.148438,0.20118 c -0.248019,0 -0.464578,0.16161 -0.648437,0.48242 -0.183862,0.31954 -0.275391,0.6943 -0.275391,1.12109 0,0.30899 0.04674,0.54143 0.140625,0.69727 0.09388,0.15583 0.236245,0.23437 0.423828,0.23437 0.248031,0 0.466647,-0.16428 0.654297,-0.48633 0.187645,-0.3233 0.28125,-0.69542 0.28125,-1.11718 0,-0.30901 -0.04873,-0.54143 -0.144531,-0.69727 -0.0958,-0.15584 -0.240303,-0.23437 -0.431641,-0.23437 z m 0,0.0137 c 0.187752,0 0.328133,0.076 0.421875,0.22851 0.09374,0.15249 0.140625,0.38181 0.140625,0.68946 0,0.4198 -0.09291,0.79018 -0.279297,1.11132 -0.186384,0.31988 -0.400321,0.47852 -0.642578,0.47852 -0.183923,0 -0.320238,-0.076 -0.412109,-0.22852 -0.09187,-0.15249 -0.138672,-0.38179 -0.138672,-0.68945 0,-0.42489 0.09085,-0.79595 0.273438,-1.11328 0.182593,-0.3186 0.39445,-0.47656 0.636718,-0.47656 z"
               id="path45" /></g><g
             id="g47"
             style="stroke:none"><path
               style="color:#000000;-inkscape-font-specification:'Lucida Handwriting, Normal';stroke:none;-inkscape-stroke:none"
               d="m 48.232422,130.17578 c -0.0834,0 -0.184118,0.018 -0.308594,0.0508 l -0.05664,0.0156 -0.01367,0.0566 c -0.147189,0.5838 -0.407937,1.13082 -0.785157,1.64453 l -0.01367,0.0195 -0.0039,0.0215 c -0.01693,0.0977 -0.02539,0.1732 -0.02539,0.23438 0,0.0564 0.02759,0.12145 0.07617,0.15625 0.04858,0.0348 0.103628,0.043 0.16211,0.043 0.05837,0 0.152295,-0.0137 0.330078,-0.0391 l 0.09961,-0.0156 c 0.197961,-0.0302 0.365005,-0.047 0.527344,-0.0625 l -0.05469,0.27149 c -0.04837,0.24184 -0.07422,0.38918 -0.07422,0.48046 0,0.0879 0.016,0.16781 0.06445,0.23047 0.04845,0.0627 0.129678,0.0937 0.208984,0.0937 0.09546,0 0.193976,-0.0281 0.296875,-0.0781 l 0.09375,-0.0449 -0.05273,-0.0918 c -0.02205,-0.039 -0.03516,-0.0947 -0.03516,-0.17383 0,-0.10099 0.02084,-0.26772 0.06445,-0.48828 l 0.03906,-0.19727 c 0.260662,0.0236 0.48277,0.0629 0.597657,0.12696 l 0.160156,0.0898 -0.01563,-0.18359 c -0.01834,-0.21875 -0.04732,-0.36887 -0.146485,-0.46485 -0.09833,-0.0973 -0.248471,-0.11718 -0.457031,-0.11718 -0.0088,0 -0.02012,0.002 -0.0293,0.002 l 0.08203,-0.41797 v -0.002 c 0.0066,-0.0304 0.01902,-0.0911 0.03906,-0.1875 0.03703,-0.17113 0.05859,-0.26994 0.05859,-0.3418 0,-0.0733 -0.02316,-0.14848 -0.07617,-0.19922 -0.05302,-0.0507 -0.124789,-0.0684 -0.199219,-0.0684 -0.07236,0 -0.148699,0.015 -0.228515,0.043 l -0.08398,0.0293 0.02148,0.0879 c 0.0075,0.0291 0.01172,0.0659 0.01172,0.11133 0,0.0344 -0.0065,0.096 -0.02344,0.17578 -0.0043,0.0202 -0.01272,0.061 -0.02539,0.12695 l -0.130859,0.6582 c -0.228398,0.0207 -0.478766,0.06 -0.734375,0.10352 0.188846,-0.2772 0.372272,-0.5564 0.53125,-0.83984 0.09691,-0.17278 0.168711,-0.31386 0.21875,-0.42579 0.05004,-0.11192 0.08008,-0.18595 0.08008,-0.26562 0,-0.045 -0.02183,-0.101 -0.0625,-0.13086 -0.04067,-0.0299 -0.08397,-0.0371 -0.126953,-0.0371 z m -2.619141,0.0606 c -0.253699,0 -0.494554,0.0735 -0.714844,0.21679 -0.219283,0.1417 -0.355468,0.3122 -0.355468,0.50782 0,0.0564 0.0094,0.12197 0.02539,0.19922 l 0.04883,0.23046 0.128907,-0.19726 c 0.221477,-0.33342 0.458785,-0.48047 0.728515,-0.48047 0.120365,0 0.194824,0.027 0.238282,0.0664 0.04346,0.0394 0.06836,0.0986 0.06836,0.20312 0,0.2069 -0.137696,0.50666 -0.439453,0.87891 -0.301757,0.37101 -0.663545,0.69537 -1.083985,0.9707 l -0.03711,0.0234 -0.0059,0.0449 c -0.0091,0.0692 -0.01367,0.12243 -0.01367,0.16602 0,0.0685 0.01338,0.13523 0.05664,0.1875 0.04326,0.0523 0.112458,0.0762 0.177735,0.0762 0.04804,0 0.112651,-0.009 0.222656,-0.0254 l 0.117188,-0.0176 c 0.262921,-0.041 0.525653,-0.0606 0.791015,-0.0606 0.322322,0 0.572052,0.0434 0.746094,0.12305 l -0.05078,-0.082 0.189453,-0.004 v -0.0117 l 0.0039,-0.0547 -0.02539,-0.01 c -0.01915,-0.17429 -0.04118,-0.32164 -0.130859,-0.4043 -0.103505,-0.0954 -0.259479,-0.11523 -0.478516,-0.11523 -0.216565,0 -0.512661,0.0336 -0.808593,0.0664 0.394972,-0.34444 0.754974,-0.67452 0.974609,-0.95703 0.264051,-0.33963 0.40625,-0.63787 0.40625,-0.9082 0,-0.18601 -0.07885,-0.35147 -0.224609,-0.46484 -0.145562,-0.11469 -0.334211,-0.16797 -0.554688,-0.16797 z m 5.791016,0 c -0.430502,0 -0.810859,0.20998 -1.117188,0.60742 -0.305064,0.39619 -0.457031,0.86898 -0.457031,1.4043 0,0.3299 0.07715,0.60443 0.240234,0.8125 v 0.002 c 0.164492,0.20667 0.397689,0.31445 0.669922,0.31445 0.436993,0 0.821574,-0.20642 1.13086,-0.59765 0.309257,-0.39252 0.464843,-0.86288 0.464843,-1.39844 0,-0.34087 -0.0769,-0.62241 -0.242187,-0.83008 -0.165341,-0.20773 -0.405777,-0.31445 -0.689453,-0.31445 z m -3.189453,0.14062 c -0.0054,0.0252 -0.01498,0.0679 -0.05273,0.15235 -0.046,0.10288 -0.115771,0.24048 -0.210937,0.41015 -0.190321,0.33933 -0.402329,0.67496 -0.636719,1.00586 l -0.07422,0.10352 c 0.0016,-0.01 0.0021,-0.0129 0.0039,-0.0234 0.363286,-0.50251 0.616389,-1.04305 0.769531,-1.61328 0.08373,-0.0199 0.155965,-0.0337 0.201172,-0.0352 z m -2.601563,0.0547 c 0.188939,0 0.328957,0.0445 0.433594,0.12695 0.104437,0.0812 0.150391,0.1756 0.150391,0.31055 0,0.19848 -0.114989,0.46523 -0.365235,0.78711 -0.07384,0.095 -0.241268,0.2259 -0.33789,0.33008 -0.230813,0.24886 -0.444549,0.49193 -0.804688,0.79101 l -0.263672,0.21875 0.339844,-0.0449 c 0.426793,-0.0577 0.77836,-0.0879 1.054687,-0.0879 0.200489,0 0.320319,0.0411 0.345704,0.0644 0.01572,0.0145 0.03603,0.12774 0.05664,0.21485 -0.189115,-0.06 -0.386938,-0.11328 -0.65625,-0.11328 -0.27547,0 -0.549408,0.0219 -0.822265,0.0644 l -0.115235,0.0156 c -0.107338,0.0162 -0.180741,0.0234 -0.193359,0.0234 -0.0257,0 -0.02511,-0.001 -0.02734,-0.004 -0.0022,-0.003 -0.01172,-0.0211 -0.01172,-0.0625 0,-0.0208 0.0049,-0.064 0.0098,-0.10743 0.41614,-0.27887 0.784497,-0.59963 1.087891,-0.97265 0.314894,-0.38846 0.484375,-0.71547 0.484375,-1.00391 0,-0.14063 -0.04301,-0.26643 -0.134766,-0.34961 -0.09175,-0.0832 -0.219088,-0.11719 -0.369141,-0.11719 -0.282637,0 -0.513514,0.21724 -0.730468,0.46875 -2.87e-4,-0.006 -0.0039,-0.0183 -0.0039,-0.0234 0,-0.10716 0.07202,-0.2203 0.263672,-0.34375 0.191653,-0.12464 0.393004,-0.18555 0.609375,-0.18555 z m 5.791016,0 c 0.236937,0 0.404808,0.0784 0.535156,0.24219 0.130404,0.16384 0.201172,0.39586 0.201172,0.70703 0,0.49809 -0.141707,0.91927 -0.423828,1.27734 -0.129932,0.16436 -0.301835,0.15617 -0.449219,0.24219 0.121089,-0.0903 0.264226,-0.097 0.361328,-0.26367 0.196337,-0.33829 0.294922,-0.72872 0.294922,-1.16406 0,-0.3184 -0.04813,-0.56509 -0.158203,-0.74414 -0.0975,-0.15861 -0.266697,-0.22824 -0.451172,-0.24805 0.03331,-0.003 0.05559,-0.0488 0.08984,-0.0488 z m -0.148438,0.21484 c 0.162909,0 0.264282,0.0543 0.34375,0.1836 0.07947,0.12927 0.126953,0.34432 0.126953,0.64258 0,0.40553 -0.09049,0.75865 -0.267578,1.06445 -0.177616,0.30482 -0.360233,0.43359 -0.5625,0.43359 -0.158573,0 -0.256048,-0.0542 -0.333984,-0.18359 -0.07794,-0.12936 -0.125,-0.34412 -0.125,-0.64258 0,-0.41175 0.08793,-0.76633 0.261719,-1.06836 0.173826,-0.3033 0.354206,-0.42969 0.55664,-0.42969 z m -0.373047,0.0742 c -0.118041,0.09 -0.259756,0.0942 -0.353515,0.25782 -0.192669,0.33484 -0.289063,0.72608 -0.289063,1.16601 0,0.31819 0.04648,0.56518 0.154297,0.74414 0.09404,0.15609 0.25942,0.22218 0.4375,0.24414 -0.03434,0.003 -0.05644,0.0488 -0.0918,0.0488 -0.223109,0 -0.384427,-0.0773 -0.515625,-0.24219 -0.130077,-0.16595 -0.199218,-0.39201 -0.199218,-0.6914 0,-0.49833 0.139238,-0.92121 0.417968,-1.28321 0.128084,-0.16617 0.295491,-0.15685 0.439453,-0.24414 z m -2.097656,0.0137 c 0.04309,0 0.05871,0.0101 0.06445,0.0156 0.0057,0.006 0.01367,0.0175 0.01367,0.0566 0,0.0191 -0.01647,0.13321 -0.05273,0.30078 -0.0202,0.0972 -0.03296,0.16135 -0.03906,0.18945 h -0.002 l -0.132812,0.67188 0.130859,-0.0117 c 0.05451,-0.005 0.102305,-0.008 0.142578,-0.008 0.18991,0 0.29789,0.0401 0.31836,0.0606 l 0.002,0.002 c 0.01285,0.0123 0.03268,0.12601 0.05273,0.20703 -0.162667,-0.0589 -0.32843,-0.11411 -0.583984,-0.12891 l -0.101563,-0.006 -0.002,0.0937 -0.05664,0.28516 c -0.04484,0.22678 -0.06836,0.39893 -0.06836,0.52539 0,0.0584 0.02204,0.10361 0.03516,0.1543 -0.05004,0.0173 -0.103172,0.0391 -0.140625,0.0391 -0.03695,0 -0.04501,-0.007 -0.05469,-0.0195 -0.0097,-0.0125 -0.02148,-0.0469 -0.02148,-0.10938 0,-0.0452 0.02069,-0.20307 0.06836,-0.4414 l 0.107422,-0.53125 -0.128907,0.01 c -0.197696,0.0154 -0.421094,0.0419 -0.671875,0.0801 l -0.09961,0.0156 c -0.174163,0.0248 -0.290979,0.0371 -0.300781,0.0371 -0.03071,0 -0.04093,-0.005 -0.04297,-0.006 5.8e-5,-0.0169 0.0071,-0.0573 0.0098,-0.084 l 0.18164,-0.0352 c 0.362307,-0.069 0.697208,-0.1157 1.003907,-0.14063 l 0.07422,-0.006 0.160157,-0.80078 c 0.0126,-0.0655 0.0202,-0.10795 0.02344,-0.12305 0.01847,-0.087 0.0293,-0.15765 0.0293,-0.21679 0,-0.0213 -0.0043,-0.0386 -0.0059,-0.0586 0.02988,-0.006 0.06412,-0.0176 0.08789,-0.0176 z"
               id="path46" /><path
               style="color:#000000;-inkscape-font-specification:'Lucida Handwriting, Normal';stroke:none;-inkscape-stroke:none"
               d="m 48.224609,130.16992 v 0.002 c -0.08304,9e-4 -0.181166,0.0168 -0.302734,0.0488 l -0.06055,0.0156 -0.01367,0.0605 c -0.146975,0.58296 -0.408402,1.12951 -0.785156,1.64258 l -0.01367,0.0215 -0.0039,0.0215 c -0.01696,0.0979 -0.02539,0.17454 -0.02539,0.23633 0,0.0586 0.02734,0.12573 0.07813,0.16211 0.0501,0.0359 0.106916,0.043 0.166016,0.043 0.0594,0 0.152302,-0.0137 0.330078,-0.0391 h 0.002 l 0.09961,-0.0156 c 0.194875,-0.0297 0.357505,-0.0472 0.517579,-0.0625 l -0.05273,0.26367 c -0.04838,0.2419 -0.07422,0.3899 -0.07422,0.48242 0,0.0887 0.01477,0.17012 0.06445,0.23438 0.04999,0.0647 0.133814,0.0957 0.214843,0.0957 0.09676,0 0.195313,-0.0278 0.298828,-0.0781 l 0.101563,-0.0488 -0.05664,-0.0977 c -0.02127,-0.0376 -0.03516,-0.0915 -0.03516,-0.16992 0,-0.10008 0.02089,-0.266 0.06445,-0.48633 l 0.03711,-0.1914 c 0.257993,0.0236 0.477904,0.0626 0.589843,0.125 l 0.171875,0.0957 -0.01758,-0.19531 c -0.01837,-0.21908 -0.04726,-0.37082 -0.148437,-0.46875 -0.100403,-0.0993 -0.251958,-0.11914 -0.460938,-0.11914 -0.0072,0 -0.01449,10e-4 -0.02148,0.002 l 0.08008,-0.41211 v -0.002 c 0.0067,-0.0308 0.01922,-0.0901 0.03906,-0.18555 0.03703,-0.17112 0.05859,-0.27057 0.05859,-0.34375 0,-0.0747 -0.02345,-0.15079 -0.07813,-0.20312 -0.05462,-0.0522 -0.127646,-0.0703 -0.203125,-0.0703 -0.07327,0 -0.150106,0.0148 -0.230469,0.043 l -0.08984,0.0312 0.02344,0.0937 c 0.0073,0.0284 0.01172,0.0644 0.01172,0.10938 0,0.0336 -0.0066,0.0944 -0.02344,0.17382 -0.0043,0.0203 -0.01271,0.061 -0.02539,0.12696 l -0.13086,0.65429 c -0.222416,0.0204 -0.466807,0.0595 -0.714843,0.10157 0.186057,-0.27339 0.366559,-0.54843 0.523437,-0.82813 0.09698,-0.1729 0.168594,-0.31554 0.21875,-0.42773 0.05008,-0.11201 0.08008,-0.18625 0.08008,-0.26758 0,-0.0471 -0.02151,-0.10519 -0.06445,-0.13672 -0.04207,-0.0309 -0.08714,-0.0371 -0.130859,-0.0371 z m 0.0078,0.0117 c 0.04224,0 0.08377,0.008 0.123047,0.0371 0.0384,0.0282 0.06055,0.0821 0.06055,0.125 0,0.078 -0.03008,0.15184 -0.08008,0.26367 -0.04992,0.11167 -0.121909,0.25117 -0.21875,0.42383 -0.158822,0.28316 -0.342445,0.5627 -0.53125,0.83984 l -0.0078,0.0137 0.01563,-0.004 c 0.255554,-0.0435 0.504341,-0.0828 0.732422,-0.10352 h 0.0059 l 0.13086,-0.66211 c 0.01266,-0.0659 0.0211,-0.1068 0.02539,-0.12695 0.01701,-0.0801 0.02344,-0.1425 0.02344,-0.17773 0,-0.0458 -0.004,-0.0835 -0.01172,-0.11328 l -0.01953,-0.082 0.07813,-0.0273 c 0.07927,-0.0278 0.155116,-0.043 0.226562,-0.043 0.07338,0 0.143892,0.0172 0.195313,0.0664 0.05135,0.0491 0.07422,0.1234 0.07422,0.19531 0,0.0705 -0.02156,0.16871 -0.05859,0.33984 -0.02004,0.0964 -0.03249,0.15721 -0.03906,0.1875 v 0.002 0.002 l -0.08398,0.42383 h 0.0078 c 0.01014,0 0.0215,-0.002 0.0293,-0.002 0.20814,0 0.356868,0.02 0.453125,0.11523 0.09715,0.094 0.126219,0.24251 0.144531,0.46094 l 0.01367,0.17187 -0.148437,-0.084 c -0.117049,-0.0653 -0.34058,-0.10333 -0.601563,-0.12696 l -0.0059,-0.002 -0.03906,0.20313 c -0.04366,0.22079 -0.06445,0.38833 -0.06445,0.49023 0,0.0799 0.01233,0.13736 0.03516,0.17774 l 0.04883,0.0859 -0.08594,0.041 c -0.102282,0.0497 -0.20076,0.0781 -0.294922,0.0781 -0.07758,0 -0.156217,-0.0311 -0.203125,-0.0918 -0.04722,-0.0611 -0.06445,-0.13947 -0.06445,-0.22657 0,-0.09 0.02586,-0.23673 0.07422,-0.47851 l 0.05664,-0.28125 -0.0078,0.002 c -0.162362,0.0155 -0.331149,0.0323 -0.529297,0.0625 l -0.09961,0.0156 c -0.175782,0.0251 -0.271125,0.0391 -0.328125,0.0391 -0.05786,0 -0.111146,-0.009 -0.158203,-0.043 -0.04637,-0.0332 -0.07422,-0.0961 -0.07422,-0.15039 0,-0.0606 0.0085,-0.13492 0.02539,-0.23242 l 0.0039,-0.0215 0.01367,-0.0176 c 0.377685,-0.51435 0.637754,-1.06184 0.785156,-1.64649 l 0.01367,-0.0527 0.05273,-0.0156 c 0.124203,-0.0327 0.224193,-0.0508 0.306641,-0.0508 z m -2.626953,0.0469 0.002,0.004 c -0.252671,0.001 -0.49344,0.0721 -0.712891,0.21485 -0.220265,0.14233 -0.357422,0.31498 -0.357422,0.51367 0,0.0571 0.0094,0.1237 0.02539,0.20117 l 0.05078,0.24609 0.138672,-0.21093 c 0.220768,-0.33236 0.455331,-0.47852 0.722656,-0.47852 0.119376,0 0.192589,0.0285 0.234375,0.0664 0.04195,0.038 0.06641,0.0938 0.06641,0.19726 0,0.20397 -0.138171,0.50334 -0.439454,0.875 -0.301314,0.37047 -0.662128,0.69377 -1.082031,0.96875 l -0.03906,0.0254 -0.0059,0.0488 c -0.0091,0.0694 -0.01367,0.12196 -0.01367,0.16602 0,0.0694 0.01205,0.13752 0.05664,0.1914 0.04484,0.0542 0.116702,0.0781 0.183594,0.0781 0.04887,0 0.112627,-0.009 0.222656,-0.0254 l 0.117188,-0.0176 h 0.002 c 0.262575,-0.041 0.524026,-0.0606 0.789062,-0.0606 0.321728,0 0.571449,0.044 0.744141,0.12305 l 0.01953,0.01 -0.05664,-0.0918 0.183594,-0.004 v -0.0176 l 0.0059,-0.0586 -0.02734,-0.01 c -0.01911,-0.17346 -0.04105,-0.32166 -0.132813,-0.40625 -0.105604,-0.0973 -0.262985,-0.11718 -0.482422,-0.11718 -0.212514,0 -0.50157,0.0324 -0.791015,0.0645 0.38847,-0.33923 0.745753,-0.66406 0.96289,-0.94336 0.264497,-0.3402 0.40625,-0.63946 0.40625,-0.91211 0,-0.18788 -0.07925,-0.35613 -0.226562,-0.4707 -0.146962,-0.1158 -0.337051,-0.16992 -0.558594,-0.16992 z m 5.798828,0.002 c -0.432653,0 -0.81579,0.21073 -1.123047,0.60937 -0.305968,0.39737 -0.457031,0.87164 -0.457031,1.40821 0,0.32947 0.07752,0.60334 0.240234,0.8125 v 0.004 0.002 c 0.165691,0.20817 0.401803,0.3164 0.675781,0.3164 0.439076,0 0.826481,-0.20717 1.136719,-0.59961 0.310179,-0.39369 0.464844,-0.8655 0.464844,-1.40234 0,-0.34187 -0.07571,-0.62482 -0.242188,-0.83399 -0.165259,-0.20762 -0.407095,-0.31273 -0.689453,-0.31445 v -0.002 z m -5.791016,0.0117 c 0.219411,0 0.40662,0.0524 0.550781,0.16601 0.14421,0.11217 0.222657,0.2768 0.222657,0.46094 0,0.26801 -0.142645,0.56524 -0.40625,0.9043 -0.21835,0.28085 -0.575274,0.60989 -0.96875,0.95312 -0.0012,0.001 -0.0027,9.1e-4 -0.0039,0.002 l -0.01563,0.0137 0.01953,-0.002 c 0.295943,-0.0328 0.592713,-0.0664 0.808593,-0.0664 0.218638,0 0.373204,0.0198 0.47461,0.11328 0.0872,0.0804 0.109772,0.22625 0.128906,0.40039 v 0.004 l 0.02344,0.01 -0.002,0.0508 v 0.006 l -0.195312,0.004 0.04883,0.0801 c -0.174805,-0.0771 -0.416209,-0.1211 -0.732422,-0.1211 -0.265687,0 -0.529702,0.0195 -0.792969,0.0606 l -0.117187,0.0176 c -0.10998,0.0164 -0.173489,0.0254 -0.220703,0.0254 -0.06366,0 -0.130192,-0.0238 -0.171875,-0.0742 -0.04192,-0.0507 -0.05664,-0.11596 -0.05664,-0.18359 0,-0.0431 0.0046,-0.097 0.01367,-0.16602 l 0.0059,-0.041 0.03516,-0.0215 c 0.420976,-0.27568 0.783738,-0.6011 1.085937,-0.97266 0.302231,-0.37283 0.439453,-0.67297 0.439453,-0.88281 0,-0.10557 -0.02534,-0.16626 -0.07031,-0.20703 -0.04513,-0.0409 -0.120834,-0.0684 -0.242188,-0.0684 -0.272133,0 -0.512189,0.14794 -0.734375,0.48242 l -0.121093,0.1836 -0.04492,-0.21485 c -0.01594,-0.077 -0.02539,-0.1416 -0.02539,-0.19726 0,-0.19255 0.135216,-0.36089 0.353516,-0.50196 0.219309,-0.14265 0.458516,-0.21679 0.710937,-0.21679 z m 5.791016,0 c 0.282017,0 0.519511,0.10635 0.683594,0.3125 0.164095,0.20617 0.242187,0.48629 0.242187,0.82617 0,0.53428 -0.156509,1.00318 -0.464844,1.39453 -0.308333,0.39003 -0.69009,0.5957 -1.125,0.5957 -0.270486,0 -0.500769,-0.10733 -0.664062,-0.3125 v -0.002 c -0.161966,-0.20664 -0.240235,-0.47972 -0.240235,-0.80859 1e-6,-0.53407 0.152872,-1.00538 0.457032,-1.40039 0.3054,-0.39624 0.682977,-0.60547 1.111328,-0.60547 z m -3.181641,0.12695 -0.0078,0.002 c -0.04632,0.002 -0.119232,0.0152 -0.203125,0.0352 h -0.0039 v 0.004 c -0.152939,0.56947 -0.40671,1.10946 -0.769531,1.61132 v 0.002 c -0.0017,0.01 -0.0026,0.0132 -0.0039,0.0215 -1.17e-4,7.3e-4 1.3e-4,0.001 0,0.002 l 0.01172,0.006 v -0.002 l 0.07422,-0.10156 c 0.234522,-0.33109 0.446284,-0.66633 0.636719,-1.00586 0.09524,-0.1698 0.164818,-0.30896 0.210938,-0.41211 0.03792,-0.0848 0.04732,-0.12707 0.05273,-0.15234 z m -0.01758,0.0156 c -0.0056,0.0256 -0.0137,0.064 -0.04883,0.14257 -0.04588,0.10261 -0.115843,0.23866 -0.210938,0.40821 -0.190205,0.33912 -0.40246,0.67514 -0.636718,1.00586 l -0.05078,0.0703 c 0.356616,-0.49733 0.607962,-1.03044 0.759766,-1.59375 0.07845,-0.0186 0.143428,-0.0307 0.1875,-0.0332 z m -2.591797,0.041 c -0.217612,0 -0.420679,0.0603 -0.613281,0.18555 -0.192564,0.12404 -0.265625,0.23948 -0.265625,0.34961 0,0.004 10e-4,0.007 0.002,0.0117 6.36e-4,0.003 0.0016,0.006 0.002,0.008 1.72e-4,0.001 -2.9e-5,0.003 0,0.004 v 0.0176 l 0.01172,-0.0137 c 0.216668,-0.25118 0.445362,-0.4668 0.724609,-0.4668 0.149054,0 0.275077,0.0335 0.365235,0.11524 0.09006,0.0816 0.132812,0.20642 0.132812,0.3457 0,0.28585 -0.169893,0.61205 -0.484375,1 -0.302911,0.37243 -0.670247,0.69214 -1.085937,0.9707 l -0.002,0.002 v 0.004 c -0.0049,0.0434 -0.0098,0.0856 -0.0098,0.10743 0,0.0212 0.0011,0.0362 0.0039,0.0469 0.0014,0.005 0.0026,0.0106 0.0039,0.0137 0.0013,0.003 0.0034,0.005 0.0039,0.006 0,0 0.002,0.002 0.002,0.002 0,0 0.002,0.002 0.002,0.002 0,0 0.002,0 0.002,0 5.26e-4,2e-4 0.0028,0.002 0.0039,0.002 0.0045,8.4e-4 0.0105,0 0.02344,0 0.0076,0 0.02907,-0.002 0.0625,-0.006 0.03295,-0.004 0.07813,-0.01 0.130859,-0.0176 l 0.115235,-0.0156 h 0.002 c 0.272533,-0.0425 0.545193,-0.0645 0.820312,-0.0645 0.26844,0 0.465374,0.0533 0.654297,0.11328 l 0.01172,0.004 -0.0039,-0.0117 c -0.01027,-0.0434 -0.01964,-0.0936 -0.0293,-0.13476 -0.0048,-0.0206 -0.0091,-0.0384 -0.01367,-0.0527 -0.0023,-0.007 -0.0055,-0.0125 -0.0078,-0.0176 -0.0011,-0.003 -0.0027,-0.006 -0.0039,-0.008 0,0 -0.002,-0.002 -0.002,-0.002 0,0 -0.002,-0.002 -0.002,-0.002 -0.0075,-0.007 -0.01877,-0.0142 -0.03711,-0.0215 -0.01834,-0.007 -0.04289,-0.0148 -0.07227,-0.0215 -0.05875,-0.0133 -0.139538,-0.0234 -0.240235,-0.0234 -0.276808,0 -0.62772,0.0302 -1.054687,0.0879 l -0.318359,0.043 0.246093,-0.20508 c 0.351691,-0.29206 0.560761,-0.53096 0.785157,-0.77343 0.0056,-0.006 0.01389,-0.0135 0.01953,-0.0195 0.0011,-0.001 0.0028,-0.003 0.0039,-0.004 0.09642,-0.10283 0.261806,-0.2308 0.335938,-0.32617 0.25073,-0.32251 0.365234,-0.58998 0.365234,-0.79102 0,-0.13645 -0.04669,-0.23426 -0.152344,-0.31641 -0.104109,-0.082 -0.244737,-0.12344 -0.429687,-0.125 v -0.002 z m 5.785156,0 v 0.002 c -0.0169,0.002 -0.03048,0.011 -0.04297,0.0215 -0.01408,0.0119 -0.02723,0.0241 -0.04102,0.0254 v 0.0117 c 0.183266,0.0197 0.349148,0.0896 0.445313,0.24609 0.109103,0.17748 0.158203,0.4225 0.158203,0.74024 0,0.43434 -0.09921,0.82294 -0.294922,1.16015 -0.04786,0.0821 -0.105445,0.1247 -0.167969,0.15821 -0.06252,0.0335 -0.129923,0.0577 -0.191406,0.10351 l 0.0078,0.0117 c 0.07265,-0.0424 0.152335,-0.0624 0.230469,-0.0918 0.07813,-0.0294 0.154824,-0.069 0.220703,-0.15234 0.283015,-0.35921 0.423828,-0.78191 0.423828,-1.28125 0,-0.31217 -0.0696,-0.54563 -0.201172,-0.71094 -0.13143,-0.16515 -0.302619,-0.24414 -0.541015,-0.24414 z m -5.785156,0.0117 c 0.1879,0 0.326395,0.0456 0.429688,0.12695 0.103218,0.0803 0.148437,0.17124 0.148437,0.30469 0,0.19593 -0.115473,0.46195 -0.365234,0.7832 -0.06713,0.0864 -0.211635,0.20439 -0.310547,0.30469 0.295743,-0.37236 0.46875,-0.69313 0.46875,-0.97461 0,-0.14198 -0.04327,-0.27075 -0.136719,-0.35547 -0.09334,-0.0846 -0.221995,-0.11718 -0.373047,-0.11718 -0.2823,0 -0.511761,0.21715 -0.726562,0.46484 -2.6e-4,-0.001 2.62e-4,-0.003 0,-0.004 -9.37e-4,-0.004 -0.002,-0.009 -0.002,-0.01 0,-0.1042 0.07098,-0.21503 0.261718,-0.33789 0.190704,-0.12403 0.39034,-0.18555 0.605469,-0.18555 z m 5.791016,0 c 0.235478,0 0.400032,0.0778 0.529297,0.24023 0.129235,0.16238 0.201172,0.39296 0.201172,0.70313 0,0.49683 -0.142602,0.9165 -0.423829,1.27344 -0.06405,0.081 -0.137697,0.11937 -0.214843,0.14843 -0.04221,0.0159 -0.08429,0.0351 -0.126953,0.0508 0.03094,-0.0153 0.0609,-0.0342 0.0918,-0.0508 0.06359,-0.0341 0.124585,-0.0776 0.173829,-0.16211 0.196963,-0.33936 0.294922,-0.73163 0.294921,-1.16796 0,-0.31907 -0.04716,-0.56742 -0.158203,-0.74805 -0.09635,-0.15674 -0.265022,-0.2222 -0.445312,-0.24414 0.01332,-0.005 0.02648,-0.0106 0.03711,-0.0195 0.01395,-0.0118 0.02684,-0.0234 0.04102,-0.0234 z m -0.148438,0.20312 c -0.205187,0 -0.388086,0.12732 -0.5625,0.43165 -0.174424,0.30313 -0.261718,0.65957 -0.261718,1.07226 0,0.29916 0.046,0.51536 0.125,0.64649 0.07877,0.13077 0.179763,0.18554 0.339843,0.18554 0.205075,0 0.390159,-0.12972 0.56836,-0.43554 0.177705,-0.30687 0.267578,-0.66185 0.267578,-1.06836 0,-0.29897 -0.04639,-0.51543 -0.126953,-0.64649 -0.08035,-0.13073 -0.185231,-0.18554 -0.34961,-0.18555 z m 0,0.0117 c 0.161439,0 0.259304,0.0538 0.337891,0.18164 0.07837,0.12749 0.126953,0.34112 0.126953,0.63868 0,0.40454 -0.09111,0.75581 -0.267578,1.06054 -0.177031,0.30382 -0.357181,0.43164 -0.556641,0.43164 -0.157065,0 -0.251025,-0.0536 -0.328125,-0.18164 -0.07688,-0.12759 -0.125,-0.3409 -0.125,-0.63867 0,-0.41081 0.08856,-0.76353 0.261719,-1.06445 0.173239,-0.30228 0.351101,-0.42774 0.550781,-0.42774 z m -0.367187,0.0566 -0.0098,0.006 c -0.07092,0.043 -0.148251,0.0622 -0.224609,0.0918 -0.07636,0.0296 -0.151868,0.0701 -0.216797,0.1543 -0.279599,0.36313 -0.417969,0.78755 -0.417969,1.28711 0,0.3004 0.06804,0.52796 0.199219,0.69531 0.132216,0.16617 0.296848,0.24414 0.521484,0.24414 0.02054,0 0.03648,-0.0116 0.05078,-0.0234 0.01431,-0.0119 0.02663,-0.0241 0.04102,-0.0254 v -0.0117 c -0.176973,-0.0218 -0.338944,-0.0883 -0.43164,-0.24218 -0.106863,-0.17738 -0.154297,-0.42269 -0.154297,-0.74024 0,-0.43896 0.09703,-0.82837 0.289062,-1.16211 0.04618,-0.0806 0.102691,-0.12182 0.164063,-0.1543 0.06137,-0.0325 0.127504,-0.0558 0.1875,-0.10156 l 0.0039,-0.002 -0.002,-0.004 z m -2.103516,0.0176 c -0.02592,0 -0.06062,0.0137 -0.08984,0.0195 h -0.0059 l 0.002,0.006 c 0.0017,0.0206 0.0059,0.0382 0.0059,0.0586 0,0.0583 -0.01087,0.12804 -0.0293,0.21484 -0.0033,0.0155 -0.01084,0.0576 -0.02344,0.12305 l -0.160156,0.79687 -0.06836,0.006 c -0.306976,0.025 -0.643356,0.0716 -1.00586,0.14063 l -0.185547,0.0351 v 0.006 c -0.0027,0.0262 -0.0097,0.0653 -0.0098,0.084 v 0.004 l 0.002,0.002 c 10e-4,5e-4 0.0065,0.002 0.01367,0.004 0.0072,0.001 0.01749,0.002 0.0332,0.002 0.0038,0 0.01224,-4.1e-4 0.02734,-0.002 0.0151,-0.002 0.03637,-0.003 0.0625,-0.006 0.05226,-0.006 0.123802,-0.0169 0.210937,-0.0293 l 0.09961,-0.0156 c 0.250653,-0.0382 0.474381,-0.0647 0.671875,-0.0801 l 0.121094,-0.01 -0.105469,0.52343 c -0.02385,0.11926 -0.04158,0.21793 -0.05273,0.29297 -0.01115,0.0751 -0.01563,0.12679 -0.01563,0.15039 0,0.0633 0.0098,0.0982 0.02148,0.11329 0.005,0.006 0.01037,0.0118 0.01953,0.0156 0.0092,0.004 0.02212,0.006 0.04102,0.006 0.04002,0 0.09279,-0.0219 0.142578,-0.0391 l 0.0059,-0.002 -0.002,-0.006 c -0.01333,-0.0515 -0.03516,-0.0956 -0.03516,-0.15234 0,-0.12564 0.02356,-0.29685 0.06836,-0.52344 l 0.05664,-0.28711 0.002,-0.0879 0.0957,0.006 c 0.25477,0.0148 0.419473,0.0701 0.582031,0.12891 l 0.01172,0.004 -0.0039,-0.0117 c -0.01,-0.0403 -0.0202,-0.0887 -0.0293,-0.12891 -0.0045,-0.0201 -0.0077,-0.0388 -0.01172,-0.0527 -0.002,-0.007 -0.0039,-0.0128 -0.0059,-0.0176 -9.76e-4,-0.002 -0.0029,-0.004 -0.0039,-0.006 0,0 -0.002,-0.002 -0.002,-0.002 0,0 -0.002,-0.002 -0.002,-0.002 l -0.002,-0.002 c -0.0064,-0.006 -0.01681,-0.0127 -0.0332,-0.0195 -0.01639,-0.007 -0.03752,-0.0151 -0.06445,-0.0215 -0.05387,-0.0127 -0.129189,-0.0215 -0.22461,-0.0215 -0.0406,0 -0.08796,0.003 -0.142578,0.008 l -0.123047,0.0117 0.13086,-0.66016 h 0.002 v -0.004 c 0.0061,-0.0283 0.01887,-0.0923 0.03906,-0.18946 0.01815,-0.0839 0.03235,-0.15505 0.04102,-0.20703 0.0043,-0.026 0.0076,-0.0464 0.0098,-0.0625 0.0021,-0.0161 0.002,-0.0275 0.002,-0.0332 0,-0.02 -9.13e-4,-0.0335 -0.0039,-0.043 -0.003,-0.009 -0.0085,-0.0142 -0.01172,-0.0176 -0.0065,-0.006 -0.02632,-0.014 -0.0625,-0.0156 v -0.004 z m 0,0.0137 c 0.04206,0 0.05622,0.01 0.06055,0.0137 0.0025,0.003 0.0034,0.006 0.0059,0.0137 0.0024,0.008 0.0059,0.02 0.0059,0.0391 0,0.004 -0.0018,0.0154 -0.0039,0.0312 -0.0021,0.0159 -0.0055,0.0366 -0.0098,0.0625 -0.0086,0.0517 -0.02095,0.12139 -0.03906,0.20508 -0.0198,0.0953 -0.03286,0.15676 -0.03906,0.18555 h -0.002 l -0.134766,0.68554 0.138672,-0.0137 c 0.0544,-0.005 0.102634,-0.008 0.142578,-0.008 0.09449,0 0.167988,0.011 0.220703,0.0234 0.02636,0.006 0.04695,0.0131 0.0625,0.0195 0.01555,0.006 0.02743,0.0118 0.03125,0.0156 l 0.002,0.002 c 0,0 0,0.002 0,0.002 6.66e-4,0.001 0.0011,0.004 0.002,0.006 0.0017,0.004 0.0039,0.009 0.0059,0.0156 0.0039,0.0134 0.0091,0.0327 0.01367,0.0527 0.0084,0.037 0.01805,0.0805 0.02734,0.11914 -0.160227,-0.0578 -0.32409,-0.11236 -0.576172,-0.12696 l -0.107422,-0.008 -0.002,0.0996 -0.05664,0.28516 c -0.04488,0.22697 -0.06836,0.40006 -0.06836,0.52734 0,0.0578 0.02013,0.10269 0.0332,0.15039 -0.04835,0.0169 -0.09942,0.0371 -0.132813,0.0371 -0.01806,0 -0.02863,-0.003 -0.03516,-0.006 -0.0065,-0.003 -0.009,-0.006 -0.01367,-0.0117 -0.0077,-0.01 -0.02148,-0.0438 -0.02148,-0.10547 0,-0.0216 0.0065,-0.0737 0.01758,-0.14843 0.01111,-0.0748 0.02696,-0.17195 0.05078,-0.29102 l 0.109375,-0.54101 -0.136719,0.0117 c -0.197896,0.0154 -0.422919,0.0419 -0.673828,0.0801 l -0.09961,0.0156 c -0.08703,0.0124 -0.158793,0.0212 -0.210938,0.0273 -0.02607,0.003 -0.0475,0.004 -0.0625,0.006 -0.015,0.002 -0.02432,0.004 -0.02539,0.004 -0.015,0 -0.02514,-0.003 -0.03125,-0.004 -0.0038,-7.8e-4 -0.0045,-0.001 -0.0059,-0.002 8.21e-4,-0.0159 0.0069,-0.0473 0.0098,-0.0723 l 0.177734,-0.0351 c 0.36211,-0.069 0.695532,-0.11572 1.001954,-0.14063 l 0.08008,-0.006 0.160156,-0.80664 c 0.01261,-0.0655 0.02029,-0.1064 0.02344,-0.12109 0.01851,-0.0872 0.0293,-0.15881 0.0293,-0.21875 0,-0.02 -0.004,-0.0356 -0.0059,-0.0527 0.0295,-0.006 0.06136,-0.0176 0.08203,-0.0176 z m 1.982422,0.0352 c -0.02514,0.0121 -0.04919,0.0278 -0.07422,0.041 -0.06244,0.033 -0.122339,0.0752 -0.169922,0.1582 -0.193304,0.33594 -0.289062,0.72903 -0.289062,1.16992 0,0.31884 0.04552,0.5675 0.154297,0.74805 0.09292,0.15423 0.257693,0.21642 0.43164,0.24023 -0.0136,0.005 -0.02631,0.0106 -0.03711,0.0195 -0.01417,0.0118 -0.02814,0.0234 -0.04297,0.0234 -0.221581,0 -0.379585,-0.0766 -0.509765,-0.24023 -0.12898,-0.16455 -0.199219,-0.38913 -0.199219,-0.6875 0,-0.4971 0.140109,-0.91843 0.417969,-1.2793 0.06316,-0.0819 0.135581,-0.11928 0.210937,-0.14844 0.03578,-0.0138 0.07118,-0.0317 0.107422,-0.0449 z m -5.46875,1.39453 c -0.176717,0.19018 -0.339043,0.37382 -0.613281,0.60156 l -0.277344,0.23047 c 0.0015,-0.0144 0.0021,-0.0233 0.0039,-0.0391 0.3388,-0.22727 0.620444,-0.50444 0.886719,-0.79297 z m 0.521484,0.69922 c 0.09979,0 0.17869,0.0104 0.236329,0.0234 0.02882,0.007 0.05278,0.0145 0.07031,0.0215 0.01753,0.007 0.03001,0.0148 0.03516,0.0195 0,0 0.002,0.002 0.002,0.002 8.12e-4,0.001 9.88e-4,0.002 0.002,0.004 0.0019,0.004 0.0037,0.0107 0.0059,0.0176 0.0043,0.0137 0.0089,0.0323 0.01367,0.0527 0.0089,0.0379 0.01972,0.0837 0.0293,0.125 -0.186776,-0.059 -0.382281,-0.11133 -0.648438,-0.11133 -0.27582,0 -0.551038,0.0219 -0.824219,0.0644 l -0.113281,0.0156 h -0.002 c -0.05359,0.008 -0.0976,0.0138 -0.130859,0.0176 -0.03326,0.004 -0.0555,0.006 -0.06055,0.006 -0.01276,0 -0.0193,-0.002 -0.02148,-0.002 -5.49e-4,-7.5e-4 -8.96e-4,-0.001 -0.002,-0.004 -0.0011,-0.002 -0.0027,-0.007 -0.0039,-0.0117 -0.0025,-0.009 -0.0059,-0.0228 -0.0059,-0.043 0,-0.0111 0.0036,-0.0386 0.0059,-0.0605 l 0.02148,-0.004 0.335938,-0.0449 c 0.426618,-0.0577 0.778843,-0.0879 1.054687,-0.0879 z"
               id="path47" /></g></g><g
           id="g52"
           transform="translate(7.7493331,40.861809)"
           style="fill:#ffffff;stroke:none;stroke-width:0.0132292"><g
             id="g49"
             style="stroke:none"><path
               style="color:#000000;-inkscape-font-specification:'Lucida Handwriting, Normal';stroke:none;-inkscape-stroke:none"
               d="m 45.218675,129.12347 q 0.03601,0.0853 0.03601,0.13457 0,0.24641 -0.422684,0.48144 -0.420789,0.23504 -0.864323,0.23504 -0.485233,0 -0.767655,-0.28242 -0.280525,-0.28242 -0.280525,-0.77334 0,-0.77524 0.507979,-1.3325 0.507979,-0.55726 1.21498,-0.55726 0.288107,0 0.485233,0.10235 0.197126,0.10236 0.197126,0.2502 0,0.13268 -0.17059,0.2919 -0.229348,-0.4587 -0.650137,-0.4587 -0.460593,0 -0.803668,0.47955 -0.343076,0.47765 -0.343076,1.11642 0,0.40752 0.204708,0.64634 0.206604,0.23693 0.557261,0.23693 0.59896,0 1.099358,-0.57052 z m 0.731099,0.11941 q 0,0.30896 0.168695,0.48523 0.17059,0.17628 0.47007,0.17628 0.265362,0 0.460593,-0.15922 0.195231,-0.15922 0.195231,-0.3734 0,-0.22935 -0.430266,-0.63118 l -0.208499,-0.19334 q -0.399939,-0.37151 -0.399939,-0.68426 0,-0.36392 0.284317,-0.59896 0.284317,-0.23503 0.72406,-0.23503 0.233139,0 0.377193,0.072 0.144054,0.0701 0.144054,0.18385 0,0.11184 -0.102354,0.25968 -0.164904,-0.31843 -0.536411,-0.31843 -0.231244,0 -0.390461,0.14405 -0.157322,0.14216 -0.157322,0.35255 0,0.14026 0.05118,0.21419 0.05307,0.0739 0.324121,0.32222 l 0.17059,0.15732 q 0.466279,0.43406 0.466279,0.77903 0,0.40184 -0.318435,0.6672 -0.318434,0.26347 -0.801773,0.26347 -0.324121,0 -0.53641,-0.15164 -0.210395,-0.15164 -0.210395,-0.38288 0,-0.15732 0.255885,-0.34876 z m 4.607283,-0.11941 q 0.03601,0.0853 0.03601,0.13457 0,0.24641 -0.422684,0.48144 -0.420789,0.23504 -0.864323,0.23504 -0.485234,0 -0.767655,-0.28242 -0.280526,-0.28242 -0.280526,-0.77334 0,-0.77524 0.507979,-1.3325 0.507979,-0.55726 1.21498,-0.55726 0.288108,0 0.485234,0.10235 0.197126,0.10236 0.197126,0.2502 0,0.13268 -0.17059,0.2919 -0.229349,-0.4587 -0.650137,-0.4587 -0.460593,0 -0.803669,0.47955 -0.343075,0.47765 -0.343075,1.11642 0,0.40752 0.204708,0.64634 0.206603,0.23693 0.557261,0.23693 0.59896,0 1.099357,-0.57052 z m 1.443787,-0.62171 -0.09667,0.48713 q -0.06065,0.30327 -0.06065,0.43026 0,0.2521 0.489025,0.2521 0.485234,0 0.854845,-0.17249 -0.0853,0.28432 -0.282421,0.35066 -0.119413,0.0398 -0.415102,0.0815 -0.29569,0.0436 -0.454907,0.0436 -0.61981,0 -0.61981,-0.41131 0,-0.10994 0.06065,-0.42269 l 0.126995,-0.63876 h -0.02843 q -0.19144,0 -0.371507,0.0834 0.104249,-0.20471 0.17059,-0.26157 0.06824,-0.0569 0.214185,-0.0569 h 0.06255 l 0.185753,-0.93445 h -0.05497 q -0.350657,0 -0.650137,0.22366 0.09477,-0.30327 0.259676,-0.39046 0.12889,-0.0663 0.794191,-0.0663 h 0.564843 q 0.534515,0 0.868113,-0.10614 -0.14974,0.23693 -0.267258,0.2881 -0.115622,0.0512 -0.504188,0.0512 h -0.612228 l -0.187649,0.93445 h 0.392357 q 0.411311,0 0.655823,-0.10424 -0.12889,0.24072 -0.229348,0.29 -0.100459,0.0493 -0.471966,0.0493 z"
               id="path48" /><path
               style="color:#000000;-inkscape-font-specification:'Lucida Handwriting, Normal';stroke:none;-inkscape-stroke:none"
               d="m 53.632812,126.98047 -0.01758,0.006 c -0.221425,0.0705 -0.509329,0.10547 -0.865234,0.10547 h -0.564453 c -0.221877,0 -0.400533,0.006 -0.533203,0.0176 -0.13267,0.0111 -0.220604,0.0276 -0.265625,0.0508 -0.111248,0.0588 -0.196464,0.19072 -0.259766,0.39062 -5.85e-4,0.002 -0.0014,0.002 -0.002,0.004 l -0.0059,0.0195 0.01563,-0.0137 c 7.21e-4,-5.4e-4 0.0012,-0.001 0.002,-0.002 0.198059,-0.14729 0.41301,-0.2207 0.644531,-0.2207 h 0.04687 l -0.183594,0.92188 h -0.05664 c -0.09816,0 -0.171476,0.0192 -0.21875,0.0586 -0.04551,0.039 -0.101097,0.12697 -0.169922,0.26172 -5.96e-4,10e-4 -0.0014,7.8e-4 -0.002,0.002 l -0.0098,0.0176 0.01758,-0.008 c 0.119234,-0.0552 0.242475,-0.084 0.369141,-0.084 h 0.01953 l -0.125,0.63086 c -0.04046,0.20864 -0.06055,0.34932 -0.06055,0.42383 0,0.13876 0.05321,0.24478 0.158203,0.31445 0.104995,0.0697 0.261416,0.10352 0.46875,0.10352 0.106749,0 0.257782,-0.0139 0.455078,-0.043 0.197292,-0.0278 0.335511,-0.0552 0.416016,-0.082 0.132239,-0.0445 0.225751,-0.1648 0.283203,-0.35156 6.99e-4,-0.002 0.0032,-0.002 0.0039,-0.004 l 0.0039,-0.0137 -0.01172,0.006 c -0.245402,0.11452 -0.530811,0.17187 -0.853516,0.17187 -0.16244,0 -0.283373,-0.0213 -0.363281,-0.0625 -0.07991,-0.0412 -0.119141,-0.0997 -0.119141,-0.18164 0,-0.0836 0.02015,-0.22768 0.06055,-0.42969 l 0.09766,-0.48242 h 0.384766 c 0.247964,0 0.404742,-0.0145 0.474609,-0.0488 0.06928,-0.034 0.14507,-0.13217 0.230469,-0.29101 6.32e-4,-0.001 0.0013,-7.7e-4 0.002,-0.002 l 0.0098,-0.0176 -0.01758,0.008 c -0.161777,0.069 -0.378696,0.10352 -0.652344,0.10352 h -0.384766 l 0.185547,-0.91993 h 0.605469 c 0.259334,0 0.428223,-0.0175 0.507813,-0.0527 0.0797,-0.0347 0.167187,-0.13257 0.265625,-0.28711 0.0014,-0.002 0.0025,-0.002 0.0039,-0.004 z m -0.0332,0.0215 c -0.09441,0.14567 -0.179325,0.24182 -0.251953,0.27344 -0.07457,0.033 -0.2432,0.0508 -0.501953,0.0508 h -0.617187 l -0.189454,0.94727 h 0.400391 c 0.267484,0 0.477892,-0.0372 0.640625,-0.10352 -0.08214,0.1503 -0.156791,0.24695 -0.21875,0.27735 -0.06408,0.0314 -0.221371,0.0488 -0.46875,0.0488 h -0.396484 l -0.002,0.004 -0.0957,0.48828 c -0.04047,0.20236 -0.0625,0.34593 -0.0625,0.43164 0,0.0862 0.04385,0.15052 0.126954,0.19336 0.0831,0.0428 0.205564,0.0644 0.36914,0.0644 0.3176,0 0.59597,-0.0592 0.839844,-0.16992 -0.05696,0.17703 -0.144963,0.29402 -0.269531,0.33594 -0.07871,0.0262 -0.217103,0.0523 -0.414063,0.0801 -0.196957,0.029 -0.347584,0.0449 -0.453125,0.0449 -0.205871,0 -0.359328,-0.0361 -0.460937,-0.10352 -0.101609,-0.0674 -0.152344,-0.16729 -0.152344,-0.30273 0,-0.0721 0.02014,-0.21156 0.06055,-0.41992 l 0.128906,-0.64649 h -0.03711 c -0.122562,0 -0.241874,0.0292 -0.357422,0.0801 0.06513,-0.1257 0.119544,-0.21324 0.160156,-0.24805 0.04371,-0.0364 0.114501,-0.0547 0.210938,-0.0547 h 0.06836 l 0.1875,-0.94727 h -0.0625 c -0.228251,0 -0.439023,0.0776 -0.634766,0.21875 0.06224,-0.18896 0.144336,-0.31821 0.248047,-0.37304 0.04128,-0.0208 0.128658,-0.0379 0.259766,-0.0488 0.13206,-0.011 0.309593,-0.0176 0.53125,-0.0176 H 52.75 c 0.348784,0 0.628326,-0.0356 0.849609,-0.10352 z m -8.957031,0.0195 c -0.473071,0 -0.881021,0.18792 -1.220703,0.56055 -0.339681,0.37264 -0.509766,0.81767 -0.509766,1.33594 0,0.32854 0.09484,0.58966 0.283203,0.7793 0.189621,0.18961 0.446713,0.2832 0.771485,0.2832 0.296857,0 0.587751,-0.0772 0.86914,-0.23438 0.141324,-0.0786 0.247174,-0.15915 0.31836,-0.24023 0.07118,-0.0811 0.107422,-0.16402 0.107422,-0.24805 0,-0.0345 -0.01293,-0.0794 -0.03711,-0.13672 l -0.0039,-0.01 -0.0078,0.008 c -0.332736,0.37936 -0.696544,0.56836 -1.09375,0.56836 -0.232282,0 -0.416217,-0.0778 -0.552735,-0.23438 -0.135262,-0.1578 -0.203125,-0.372 -0.203125,-0.64257 0,-0.42467 0.113895,-0.79599 0.341797,-1.11328 0.227902,-0.31856 0.494062,-0.47657 0.798828,-0.47657 0.278122,0 0.492357,0.15073 0.644531,0.45508 l 0.0039,0.008 0.0059,-0.006 c 0.114397,-0.10677 0.173828,-0.20558 0.173828,-0.29687 0,-0.1015 -0.0686,-0.18702 -0.201172,-0.25586 -0.132586,-0.0688 -0.295426,-0.10352 -0.488281,-0.10352 z m 2.572266,0 c -0.29434,0 -0.537681,0.0805 -0.728516,0.23829 -0.190836,0.15776 -0.287109,0.35918 -0.287109,0.60351 0,0.21132 0.13504,0.44115 0.402343,0.68945 l 0.208985,0.19336 c 0.286385,0.26746 0.427734,0.47624 0.427734,0.625 0,0.14078 -0.06433,0.26392 -0.193359,0.36914 -0.129016,0.10522 -0.281446,0.15821 -0.457031,0.15821 -0.198356,0 -0.352463,-0.0597 -0.464844,-0.17578 -0.110725,-0.1157 -0.165612,-0.27482 -0.166016,-0.47852 v -0.0156 l -0.01172,0.01 c -0.0017,0.001 -2.83e-4,0.003 -0.002,0.004 -0.167961,0.12667 -0.255859,0.24221 -0.255859,0.34961 0,0.15616 0.07133,0.28664 0.212891,0.38867 0.142821,0.10202 0.323903,0.15234 0.541015,0.15234 0.323428,0 0.591132,-0.0889 0.804688,-0.26562 0.213551,-0.17796 0.322265,-0.40224 0.322265,-0.67188 0,-0.23296 -0.157258,-0.49323 -0.46875,-0.7832 l -0.171875,-0.1582 c -0.180618,-0.16547 -0.28795,-0.27253 -0.322265,-0.32032 -0.03301,-0.0477 -0.05078,-0.11823 -0.05078,-0.21093 0,-0.13861 0.05257,-0.25398 0.15625,-0.34766 0.104964,-0.095 0.231977,-0.14258 0.384766,-0.14258 0.245781,0 0.422247,0.10397 0.53125,0.31446 l 0.0059,0.01 0.0059,-0.008 c 0.06868,-0.0992 0.103515,-0.1871 0.103515,-0.26367 0,-0.0786 -0.05114,-0.14211 -0.148437,-0.18946 -0.09731,-0.0486 -0.222799,-0.0742 -0.378906,-0.0742 z m 2.765625,0 c -0.473072,0 -0.879069,0.18792 -1.21875,0.56055 -0.339681,0.37264 -0.509766,0.81767 -0.509766,1.33594 0,0.32854 0.09288,0.58966 0.28125,0.7793 0.18962,0.18961 0.448665,0.2832 0.773438,0.2832 0.296857,0 0.585798,-0.0772 0.867187,-0.23438 0.141324,-0.0786 0.247174,-0.15915 0.318359,-0.24023 0.07119,-0.0811 0.107422,-0.16402 0.107422,-0.24805 0,-0.0345 -0.01293,-0.0794 -0.03711,-0.13672 l -0.0039,-0.01 -0.0059,0.008 c -0.332735,0.37936 -0.698497,0.56836 -1.095703,0.56836 -0.232282,0 -0.414264,-0.0778 -0.550781,-0.23438 -0.135262,-0.1578 -0.203125,-0.372 -0.203125,-0.64257 0,-0.42467 0.113895,-0.79599 0.341797,-1.11328 0.227902,-0.31856 0.492109,-0.47657 0.796875,-0.47657 0.278121,0 0.492356,0.15073 0.644531,0.45508 l 0.0039,0.008 0.0078,-0.006 c 0.114396,-0.10677 0.171875,-0.20558 0.171875,-0.29687 0,-0.1015 -0.0686,-0.18702 -0.201172,-0.25586 -0.132587,-0.0688 -0.295426,-0.10352 -0.488281,-0.10352 z m -5.337891,0.0137 c 0.191288,0 0.352174,0.0339 0.482422,0.10156 0.130261,0.0676 0.193359,0.14852 0.193359,0.24414 0,0.0845 -0.05593,0.17931 -0.166015,0.2832 -0.153336,-0.29985 -0.368952,-0.45508 -0.648438,-0.45508 -0.309357,0 -0.579062,0.16159 -0.808594,0.48243 -0.229532,0.31956 -0.34375,0.69211 -0.34375,1.11914 0,0.27278 0.0674,0.48976 0.205079,0.65039 0.138954,0.15935 0.327239,0.24023 0.5625,0.24023 0.397743,0 0.763679,-0.19394 1.095703,-0.56836 0.02169,0.0528 0.0332,0.0952 0.0332,0.125 0,0.0803 -0.03381,0.16084 -0.103516,0.24024 -0.06971,0.0794 -0.175941,0.15822 -0.316406,0.23632 -0.279662,0.15622 -0.566807,0.23438 -0.861328,0.23438 -0.322205,0 -0.574777,-0.0943 -0.761719,-0.28125 -0.185666,-0.18692 -0.279297,-0.44351 -0.279297,-0.76953 0,-0.51538 0.168236,-0.95775 0.50586,-1.32813 0.337623,-0.37037 0.741341,-0.55468 1.210937,-0.55468 z m 2.572266,0 c 0.154745,0 0.278287,0.0249 0.373047,0.0723 0.09477,0.0461 0.140625,0.1047 0.140625,0.17774 0,0.0709 -0.03484,0.15482 -0.09961,0.25 -0.111382,-0.20647 -0.288143,-0.31641 -0.533203,-0.31641 -0.155536,0 -0.287205,0.0494 -0.394531,0.14648 -0.106086,0.0959 -0.158203,0.21552 -0.158203,0.35743 0,0.0943 0.01555,0.16785 0.05078,0.21875 0.03645,0.0507 0.145389,0.15664 0.326172,0.32226 l 0.169922,0.1582 c 0.310212,0.28878 0.464844,0.54644 0.464843,0.77344 10e-7,0.26615 -0.105377,0.48626 -0.316406,0.66211 -0.211022,0.1746 -0.475851,0.26172 -0.796875,0.26172 -0.215049,0 -0.392973,-0.0502 -0.533203,-0.15039 -0.138969,-0.10016 -0.207031,-0.2248 -0.207031,-0.37695 0,-0.099 0.08397,-0.21229 0.246094,-0.33594 0.003,0.19919 0.05533,0.36091 0.166015,0.47656 0.115072,0.11891 0.273659,0.17774 0.47461,0.17774 0.17823,0 0.333552,-0.0531 0.464843,-0.16016 0.13128,-0.10706 0.199219,-0.23411 0.199219,-0.37891 0,-0.15703 -0.146291,-0.36645 -0.433594,-0.63476 l -0.208984,-0.19336 c -0.265948,-0.24704 -0.396484,-0.47401 -0.396484,-0.67969 0,-0.24089 0.093,-0.43812 0.28125,-0.59375 0.188253,-0.15562 0.428719,-0.23437 0.720703,-0.23437 z m 2.765625,0 c 0.191288,0 0.352174,0.0339 0.482422,0.10156 0.130261,0.0676 0.193359,0.14852 0.193359,0.24414 0,0.0845 -0.05593,0.17931 -0.166016,0.2832 -0.153336,-0.29985 -0.368952,-0.45508 -0.648437,-0.45508 -0.309357,0 -0.579062,0.16159 -0.808594,0.48243 -0.229531,0.31956 -0.34375,0.69211 -0.34375,1.11914 0,0.27278 0.0674,0.48976 0.205078,0.65039 0.138954,0.15935 0.327239,0.24023 0.5625,0.24023 0.397744,0 0.76368,-0.19394 1.095703,-0.56836 0.02169,0.0528 0.0332,0.0952 0.0332,0.125 0,0.0803 -0.03381,0.16084 -0.103515,0.24024 -0.06971,0.0794 -0.173988,0.15822 -0.314453,0.23632 -0.279662,0.15622 -0.566808,0.23438 -0.861328,0.23438 -0.322206,0 -0.576731,-0.0943 -0.763672,-0.28125 -0.185667,-0.18692 -0.279297,-0.44351 -0.279297,-0.76953 0,-0.51538 0.170189,-0.95775 0.507812,-1.32813 0.337623,-0.37037 0.739389,-0.55468 1.208985,-0.55468 z"
               id="path49" /></g><g
             id="g51"
             style="stroke:none"><path
               style="color:#000000;-inkscape-font-specification:'Lucida Handwriting, Normal';stroke:none;-inkscape-stroke:none"
               d="m 53.84375,126.81836 -0.255859,0.0801 C 53.379939,126.9646 53.09984,127 52.75,127 h -0.564453 c -0.223399,0 -0.404118,0.006 -0.541016,0.0176 -0.136898,0.0114 -0.225292,0.0227 -0.298828,0.0606 h -0.002 c -0.128245,0.0678 -0.205941,0.21981 -0.271484,0.39843 -0.0084,0.0229 -0.02752,0.0264 -0.03516,0.0508 l -0.08984,0.28907 0.242187,-0.18164 c 0.163587,-0.12218 0.338939,-0.1681 0.523438,-0.18164 l -0.142579,0.71484 h 0.01758 c -0.110065,0 -0.205392,0.0201 -0.277344,0.0801 h -0.002 c -0.06916,0.0593 -0.121705,0.15226 -0.19336,0.29297 l -0.128906,0.25195 0.257813,-0.11914 c 0.07669,-0.0355 0.155516,-0.0427 0.234375,-0.0527 l -0.09961,0.5 c -0.04084,0.21062 -0.0625,0.35005 -0.0625,0.44141 0,0.16178 0.07077,0.30539 0.199219,0.39062 0.128445,0.0852 0.302062,0.11915 0.519531,0.11915 0.115113,0 0.269106,-0.0155 0.46875,-0.0449 0.199595,-0.0281 0.338719,-0.053 0.431641,-0.084 0.167567,-0.0564 0.283455,-0.20853 0.345703,-0.41602 l 0.0625,-0.21093 -0.197266,0.0937 c -0.231476,0.10802 -0.502605,0.16211 -0.814453,0.16211 -0.154567,0 -0.262519,-0.021 -0.320312,-0.0508 -0.05779,-0.0298 -0.07031,-0.0493 -0.07031,-0.10156 0,-0.069 0.01868,-0.21251 0.05859,-0.41211 l 0.08203,-0.4082 h 0.310547 c 0.252017,0 0.405653,-0.005 0.515625,-0.0586 0.108844,-0.0534 0.183814,-0.16465 0.273438,-0.33204 l 0.130859,-0.24609 -0.255859,0.10938 c -0.144726,0.0617 -0.351281,0.0957 -0.617188,0.0957 h -0.273437 l 0.148437,-0.73828 h 0.53125 c 0.262426,0 0.428669,-0.008 0.542969,-0.0586 0.11523,-0.0502 0.208179,-0.1611 0.3125,-0.32617 z m -9.201172,0.11328 c -0.497146,0 -0.933169,0.19961 -1.287109,0.58789 -0.353933,0.38827 -0.535157,0.86015 -0.535157,1.39844 0,0.34599 0.103473,0.63528 0.310547,0.84375 0.208175,0.20817 0.493389,0.31055 0.835938,0.31055 0.31242,0 0.619288,-0.0829 0.912109,-0.2461 0.147267,-0.0819 0.262337,-0.16703 0.34375,-0.25976 0.08141,-0.0927 0.13086,-0.19837 0.13086,-0.3086 0,-0.0568 -0.01828,-0.10876 -0.04492,-0.17187 l -0.06055,-0.14453 -0.103516,0.11718 c -0.320784,0.36574 -0.657278,0.53711 -1.02539,0.53711 -0.211644,0 -0.362782,-0.0659 -0.482422,-0.20312 -0.118502,-0.13825 -0.181641,-0.3268 -0.181641,-0.58203 0,-0.40826 0.107608,-0.75702 0.324219,-1.0586 h 0.002 c 0.216611,-0.30278 0.449692,-0.43945 0.722656,-0.43945 0.244826,0 0.42035,0.11999 0.5625,0.4043 l 0.05859,0.11914 0.0957,-0.0898 c 0.123678,-0.11543 0.203125,-0.23467 0.203125,-0.36523 0,-0.14223 -0.101414,-0.25878 -0.25,-0.33594 -0.14879,-0.0773 -0.327545,-0.11328 -0.53125,-0.11328 z m 2.572266,0 c -0.310665,0 -0.578394,0.0833 -0.78711,0.25586 -0.208736,0.17256 -0.320312,0.40758 -0.320312,0.67578 0,0.25038 0.154943,0.49883 0.43164,0.75586 l 0.207032,0.19336 c 0.280029,0.26152 0.40039,0.46713 0.40039,0.55859 0,0.11294 -0.04672,0.20632 -0.160156,0.29883 -0.113258,0.0924 -0.241179,0.13672 -0.398437,0.13672 -0.180377,0 -0.304691,-0.0496 -0.398438,-0.14648 -0.09264,-0.0968 -0.140625,-0.22988 -0.140625,-0.41797 l 0.02148,-0.21094 -0.179687,0.13281 c -0.180926,0.13536 -0.294922,0.26959 -0.294922,0.42774 0,0.18395 0.09247,0.34794 0.251953,0.46289 0.16077,0.11484 0.362348,0.16992 0.59375,0.16992 0.340078,0 0.632182,-0.0959 0.863281,-0.28711 0.231027,-0.19252 0.353516,-0.44834 0.353516,-0.74219 0,-0.27424 -0.17574,-0.55334 -0.496094,-0.85156 L 46.99023,128.1875 c -0.178343,-0.16339 -0.287997,-0.27846 -0.308593,-0.30664 -0.01757,-0.0254 -0.03516,-0.0767 -0.03516,-0.1582 0,-0.11577 0.03801,-0.20069 0.125,-0.2793 0.0886,-0.0802 0.190457,-0.11914 0.324219,-0.11914 0.219601,0 0.353138,0.0801 0.449219,0.26562 l 0.07617,0.14454 0.0918,-0.13477 c 0.07484,-0.10809 0.121093,-0.20992 0.121093,-0.31445 0,-0.11676 -0.0852,-0.21547 -0.199218,-0.27149 -0.114996,-0.0575 -0.254383,-0.082 -0.419922,-0.082 z m 2.765625,0 c -0.497147,0 -0.93317,0.19961 -1.28711,0.58789 -0.353932,0.38827 -0.533203,0.86015 -0.533203,1.39844 0,0.34599 0.101519,0.63528 0.308594,0.84375 0.208174,0.20817 0.495341,0.31055 0.837891,0.31055 0.313043,0 0.618753,-0.0822 0.912109,-0.2461 0.147267,-0.0819 0.260384,-0.16703 0.341797,-0.25976 0.08141,-0.0927 0.130859,-0.19837 0.130859,-0.3086 0,-0.0568 -0.01633,-0.10876 -0.04297,-0.17187 l -0.0625,-0.14453 -0.103515,0.11718 c -0.320784,0.36574 -0.657279,0.53711 -1.025391,0.53711 -0.211644,0 -0.362782,-0.0659 -0.482422,-0.20312 -0.118501,-0.13825 -0.179687,-0.3268 -0.179687,-0.58203 0,-0.40826 0.107608,-0.75702 0.324219,-1.0586 0.216611,-0.30278 0.449691,-0.43945 0.722656,-0.43945 0.244825,0 0.420349,0.11999 0.5625,0.4043 l 0.05859,0.11914 0.09766,-0.0898 c 0.123678,-0.11543 0.201172,-0.23467 0.201172,-0.36523 0,-0.14223 -0.101415,-0.25878 -0.25,-0.33594 -0.14879,-0.0773 -0.327544,-0.11328 -0.53125,-0.11328 z m 3.394531,0.1875 c -0.01857,0.0159 -0.05251,0.0671 -0.06445,0.0723 -0.03982,0.0176 -0.210115,0.043 -0.464844,0.043 H 52.1543 l -0.228516,1.13085 h 0.513672 c 0.177407,0 0.298449,-0.041 0.435547,-0.0703 -0.0145,0.0147 -0.04565,0.0668 -0.05273,0.0703 -0.02397,0.0118 -0.186363,0.0391 -0.429688,0.0391 h -0.472656 l -0.01563,0.0781 -0.0957,0.48828 c -0.04061,0.20339 -0.0625,0.34935 -0.0625,0.44922 0,0.1158 0.06861,0.22115 0.173828,0.27539 0.105215,0.0542 0.24066,0.0742 0.412109,0.0742 0.235068,0 0.429647,-0.0673 0.628906,-0.12695 -0.03087,0.031 -0.05001,0.10053 -0.08789,0.11328 -0.0663,0.0221 -0.201828,0.0507 -0.396485,0.0781 h -0.002 c -0.194608,0.0287 -0.342276,0.043 -0.439453,0.043 -0.195737,0 -0.331998,-0.036 -0.410156,-0.0879 -0.07816,-0.0519 -0.111328,-0.11413 -0.111328,-0.22656 0,-0.0552 0.01857,-0.19596 0.05859,-0.40234 l 0.15039,-0.75586 h -0.148437 c -0.05653,0 -0.108742,0.0273 -0.164063,0.0371 0.0062,-0.008 0.02374,-0.0399 0.02734,-0.043 0.0195,-0.0157 0.0669,-0.0332 0.150391,-0.0332 h 0.142578 l 0.224609,-1.13085 H 51.78125 c -0.15305,-10e-6 -0.285734,0.0878 -0.425781,0.14648 0.02839,-0.0354 0.05119,-0.11363 0.08008,-0.12891 0.01239,-0.006 0.09873,-0.0284 0.226562,-0.0391 0.127832,-0.0107 0.303303,-0.0156 0.523438,-0.0156 H 52.75 c 0.25299,0 0.433746,-0.0422 0.625,-0.0781 z m -8.732422,0.008 c 0.180437,0 0.325409,0.0326 0.439453,0.0918 0.114249,0.0593 0.144531,0.10722 0.144531,0.16211 0,0.0348 -0.04963,0.10129 -0.103515,0.16602 -0.145143,-0.21085 -0.324885,-0.36061 -0.554688,-0.38477 0.02848,-0.001 0.04513,-0.0352 0.07422,-0.0352 z m 2.572266,0 c 0.145312,0 0.254955,0.024 0.332031,0.0625 h 0.002 c 0.07724,0.0376 0.08789,0.0614 0.08789,0.0957 0,0.0291 -0.03061,0.0837 -0.05469,0.13281 -0.118127,-0.13577 -0.253906,-0.2532 -0.445312,-0.26563 0.0309,-0.002 0.04557,-0.0254 0.07813,-0.0254 z m 2.765625,0 c 0.180437,0 0.325408,0.0326 0.439453,0.0918 0.114249,0.0593 0.144531,0.10722 0.144531,0.16211 0,0.0348 -0.04963,0.10129 -0.103516,0.16602 -0.145143,-0.21085 -0.324885,-0.36061 -0.554687,-0.38477 0.02848,-0.001 0.04513,-0.0352 0.07422,-0.0352 z m -3.347657,0.1875 c -0.113264,0.1094 -0.18164,0.25026 -0.18164,0.40821 0,0.10545 0.01769,0.19633 0.06836,0.26953 v 0.002 c 0.05119,0.0713 0.155966,0.17122 0.337891,0.33789 l 0.169922,0.15625 c 0.301351,0.28053 0.435547,0.52132 0.435547,0.70703 0,0.24194 -0.08965,0.43051 -0.283204,0.5918 -0.01585,0.0131 -0.04404,0.007 -0.06055,0.0195 0.137632,-0.11811 0.222656,-0.26886 0.222656,-0.43555 0,-0.21433 -0.167279,-0.42887 -0.460938,-0.70312 l -0.208984,-0.19336 c -0.256554,-0.23832 -0.367188,-0.44471 -0.367188,-0.61133 0,-0.21703 0.07769,-0.38261 0.248047,-0.52344 0.02058,-0.017 0.05816,-0.0104 0.08008,-0.0254 z m -2.701171,0.13868 c -0.09896,0.0793 -0.225733,0.065 -0.310547,0.18359 -0.240823,0.33529 -0.361328,0.73039 -0.361328,1.17383 0,0.28813 0.07407,0.53076 0.228515,0.71093 0.155831,0.17871 0.374961,0.27149 0.63086,0.27149 0.38039,0 0.720944,-0.2247 1.037109,-0.53516 0,0.054 -0.02255,0.11194 -0.08203,0.17969 -0.05948,0.0677 -0.154541,0.142 -0.289063,0.2168 h -0.002 c -0.267695,0.14952 -0.538072,0.22265 -0.816406,0.22265 -0.304428,0 -0.528878,-0.0855 -0.697266,-0.2539 -0.166958,-0.16809 -0.251953,-0.39652 -0.251953,-0.70508 0,-0.49537 0.15905,-0.91088 0.482422,-1.26563 0.122239,-0.13409 0.293893,-0.11704 0.431641,-0.19921 z m 5.33789,0 c -0.09896,0.0793 -0.225732,0.065 -0.310547,0.18359 -0.240822,0.33529 -0.361328,0.73039 -0.361328,1.17383 0,0.28813 0.07407,0.53076 0.228516,0.71093 0.15583,0.17871 0.37496,0.27149 0.630859,0.27149 0.38039,0 0.720945,-0.2247 1.03711,-0.53516 0,0.054 -0.0206,0.11194 -0.08008,0.17969 -0.05948,0.0677 -0.156493,0.142 -0.291015,0.2168 -0.267695,0.14952 -0.538072,0.22265 -0.816406,0.22265 -0.304428,0 -0.530832,-0.0855 -0.699219,-0.2539 -0.166959,-0.16809 -0.251953,-0.39652 -0.251953,-0.70508 0,-0.49537 0.15905,-0.91088 0.482422,-1.26563 0.122239,-0.13409 0.293892,-0.11704 0.43164,-0.19921 z m -3.349609,1.98046 c 0.02919,0.1301 0.04039,0.27283 0.126953,0.36328 h 0.002 c 0.125969,0.13018 0.304994,0.18594 0.507813,0.19336 -0.04445,0.004 -0.06777,0.0371 -0.115235,0.0371 -0.200759,0 -0.358187,-0.0455 -0.480469,-0.13281 -0.121045,-0.0872 -0.167968,-0.17837 -0.167968,-0.30273 0,-0.0304 0.07826,-0.10053 0.126953,-0.15821 z"
               id="path50" /><path
               style="color:#000000;-inkscape-font-specification:'Lucida Handwriting, Normal';stroke:none;-inkscape-stroke:none"
               d="m 53.859375,126.80664 -0.01758,0.006 -0.0039,0.002 -0.251954,0.0781 c -0.206966,0.0658 -0.486544,0.10156 -0.835937,0.10156 h -0.564453 c -0.223517,0 -0.403821,0.006 -0.541016,0.0176 -0.137023,0.0114 -0.227755,0.0219 -0.302734,0.0606 h -0.002 c -0.130881,0.0692 -0.207731,0.22327 -0.273438,0.40234 -0.0037,0.01 -0.01073,0.0146 -0.01758,0.0215 -0.0069,0.007 -0.01331,0.0157 -0.01758,0.0293 l -0.08789,0.28516 -0.0078,0.0234 0.257812,-0.19335 c 0.160042,-0.11954 0.330965,-0.16548 0.511719,-0.17969 l -0.142578,0.70898 c -0.09846,0.004 -0.188943,0.0165 -0.255859,0.0723 h -0.002 c -0.0705,0.0604 -0.123598,0.15605 -0.195312,0.29687 l -0.138672,0.26758 0.02148,-0.01 0.253907,-0.11718 c 0.07288,-0.0337 0.148335,-0.0412 0.224609,-0.0508 l -0.09766,0.49023 c -0.04086,0.21073 -0.0625,0.35095 -0.0625,0.44336 0,0.16371 0.0708,0.30998 0.201172,0.39648 0.130058,0.0863 0.30528,0.11914 0.523437,0.11914 0.115707,0 0.268953,-0.0155 0.46875,-0.0449 0.199709,-0.0281 0.339801,-0.0527 0.433594,-0.084 0.170101,-0.0573 0.286968,-0.21112 0.349609,-0.41992 l 0.06641,-0.22461 -0.210938,0.0996 c -0.230099,0.10704 -0.500183,0.16211 -0.810547,0.16211 -0.153967,0 -0.26047,-0.0219 -0.316406,-0.0508 -0.02855,-0.0147 -0.04536,-0.0274 -0.05469,-0.041 -0.0093,-0.0136 -0.01367,-0.0291 -0.01367,-0.0547 0,-0.0678 0.01873,-0.21076 0.05859,-0.41015 l 0.08203,-0.4043 h 0.304687 c 0.252104,0 0.405571,-0.004 0.517578,-0.0586 0.111027,-0.0545 0.187571,-0.16631 0.277344,-0.33398 l 0.126953,-0.24414 0.01172,-0.0195 -0.01953,0.01 -0.251954,0.10743 c -0.143443,0.0611 -0.349891,0.0957 -0.615234,0.0957 h -0.265625 l 0.146484,-0.72656 h 0.525391 c 0.26256,0 0.428687,-0.007 0.544922,-0.0586 0.117306,-0.0511 0.211852,-0.16268 0.316406,-0.32812 z m -0.03125,0.0234 -0.132813,0.21094 c -0.104087,0.1647 -0.195439,0.27492 -0.308593,0.32421 -0.112365,0.0498 -0.278725,0.0586 -0.541016,0.0586 h -0.537109 l -0.150391,0.75 h 0.28125 c 0.266471,0 0.473133,-0.0335 0.619141,-0.0957 l 0.238281,-0.10156 -0.121094,0.22852 c -0.08948,0.16711 -0.164823,0.27775 -0.271484,0.33008 -0.107937,0.0526 -0.25979,0.0586 -0.511719,0.0586 h -0.316406 l -0.08203,0.41211 c -0.03995,0.19981 -0.05859,0.34387 -0.05859,0.41406 0,0.0267 0.0023,0.0459 0.01367,0.0625 0.01138,0.0166 0.02935,0.0298 0.05859,0.0449 0.05965,0.0308 0.169053,0.0508 0.324219,0.0508 0.312613,0 0.583904,-0.0536 0.816406,-0.1621 l 0.185547,-0.0879 -0.05859,0.19727 c -0.06186,0.20618 -0.176765,0.35656 -0.341797,0.41211 -0.09205,0.0307 -0.23216,0.0559 -0.431641,0.084 -0.19949,0.0294 -0.352278,0.0449 -0.466797,0.0449 -0.21678,0 -0.388793,-0.035 -0.515625,-0.11914 -0.126529,-0.084 -0.197265,-0.22492 -0.197265,-0.38477 0,-0.0903 0.02168,-0.22894 0.0625,-0.43945 l 0.101562,-0.50977 -0.0078,0.002 c -0.07871,0.01 -0.15838,0.0167 -0.236329,0.0527 l -0.240234,0.11133 0.119141,-0.23438 c 0.0716,-0.14059 0.123582,-0.23286 0.191406,-0.29101 h 0.002 c 0.0703,-0.0586 0.164178,-0.0801 0.273438,-0.0801 v -0.0117 h -0.0098 l 0.142578,-0.7168 -0.0078,0.002 c -0.185283,0.0136 -0.362578,0.0586 -0.527344,0.18164 l -0.226563,0.16992 0.08398,-0.26953 c 0.0034,-0.0108 0.0089,-0.0167 0.01563,-0.0234 0.0067,-0.007 0.01481,-0.0145 0.01953,-0.0273 0.06538,-0.17818 0.143922,-0.32813 0.269531,-0.39454 h 0.002 c 0.07209,-0.0371 0.15815,-0.0491 0.294922,-0.0605 0.136601,-0.0116 0.317736,-0.0176 0.541016,-0.0176 H 52.75 c 0.350286,0 0.630907,-0.0351 0.839844,-0.10156 z m -9.185547,0.0957 c -0.498916,0 -0.937967,0.2004 -1.292969,0.58985 -0.354972,0.38941 -0.535156,0.86256 -0.535156,1.40234 0,0.34731 0.104047,0.6378 0.3125,0.84765 0.209544,0.20954 0.495977,0.31251 0.839844,0.3125 0.31359,0 0.62231,-0.0824 0.916015,-0.24609 0.14769,-0.0821 0.263576,-0.16817 0.345704,-0.26172 0.08218,-0.0936 0.130859,-0.20029 0.130859,-0.3125 0,-0.0582 -0.0182,-0.11052 -0.04492,-0.17383 l -0.06445,-0.15429 -0.111328,0.125 c -0.319947,0.36478 -0.653473,0.53515 -1.019531,0.53515 -0.210271,0 -0.358047,-0.0652 -0.476563,-0.20117 -0.117323,-0.13687 -0.181641,-0.32398 -0.181641,-0.57812 10e-7,-0.40641 0.109145,-0.75263 0.324219,-1.05274 3.65e-4,-5.1e-4 -3.65e-4,-10e-4 0,-0.002 h 0.002 c 0.215853,-0.30172 0.446041,-0.4375 0.716797,-0.4375 0.242665,0 0.415132,0.11932 0.556641,0.40234 l 0.0625,0.12696 0.101562,-0.0977 c 0.124306,-0.11602 0.205079,-0.2359 0.205078,-0.36914 0,-0.14537 -0.102042,-0.26395 -0.251953,-0.3418 -0.14892,-0.0774 -0.328537,-0.11278 -0.53125,-0.11328 z m 2.572266,0 c -0.311847,0 -0.580965,0.0822 -0.791016,0.25586 -0.210117,0.1737 -0.322266,0.41161 -0.322266,0.68164 0,0.25311 0.156242,0.50213 0.433594,0.75977 l 0.207031,0.19336 c 0.139728,0.13049 0.238005,0.24876 0.302735,0.34375 0.06473,0.095 0.0957,0.16811 0.0957,0.21093 0,0.11112 -0.04577,0.20128 -0.158203,0.29297 -0.11217,0.0915 -0.238516,0.13672 -0.394531,0.13672 -0.179165,0 -0.302032,-0.0489 -0.394532,-0.14453 -0.09134,-0.0954 -0.138671,-0.2271 -0.138672,-0.41406 l 0.02344,-0.22461 -0.191406,0.14062 c -0.181538,0.13582 -0.296875,0.27227 -0.296875,0.4336 0,0.18616 0.09299,0.35276 0.253906,0.46875 0.162084,0.11578 0.365205,0.16992 0.597656,0.16992 0.341321,0 0.634817,-0.0949 0.867188,-0.28711 0.232357,-0.19363 0.355468,-0.45236 0.355468,-0.74805 0,-0.27706 -0.177069,-0.55667 -0.498046,-0.85547 l -0.171875,-0.1582 v 0.002 c -0.0891,-0.0816 -0.160698,-0.15245 -0.212891,-0.20507 -0.05219,-0.0526 -0.08422,-0.0885 -0.09375,-0.10157 -0.01637,-0.0237 -0.03516,-0.0737 -0.03516,-0.15429 0,-0.11433 0.0371,-0.19578 0.123047,-0.27344 0.08752,-0.0792 0.187834,-0.11914 0.320312,-0.11914 0.217992,0 0.348072,0.0797 0.443359,0.26367 l 0.08203,0.1543 0.09766,-0.14453 c 0.07522,-0.10864 0.121094,-0.21188 0.121094,-0.31836 0,-0.11998 -0.08752,-0.22055 -0.203125,-0.27735 -0.113765,-0.0565 -0.252641,-0.0792 -0.414063,-0.0801 v -0.002 z m 2.765625,0 c -0.498917,0 -0.937968,0.2004 -1.292969,0.58985 -0.35498,0.38941 -0.533203,0.86258 -0.533203,1.40234 0,0.34728 0.102078,0.63778 0.310547,0.84765 0.209557,0.20956 0.497929,0.3125 0.841797,0.3125 0.3142,0 0.621773,-0.0817 0.916015,-0.24609 0.147711,-0.0822 0.261657,-0.16821 0.34375,-0.26172 0.08218,-0.0936 0.13086,-0.20029 0.13086,-0.3125 0,-0.0581 -0.0162,-0.11041 -0.04297,-0.17383 l -0.06641,-0.15429 -0.111329,0.125 c -0.319947,0.36478 -0.653472,0.53515 -1.019531,0.53515 -0.21027,0 -0.358046,-0.0652 -0.476562,-0.20117 -0.117299,-0.13685 -0.179688,-0.32395 -0.179688,-0.57812 0,-0.4071 0.108412,-0.75423 0.324219,-1.05469 0.215852,-0.30172 0.44604,-0.4375 0.716797,-0.4375 0.242663,0 0.415131,0.11932 0.55664,0.40234 l 0.0625,0.12696 0.103516,-0.0957 v -0.002 c 0.124332,-0.11604 0.203125,-0.23596 0.203125,-0.36914 0,-0.14537 -0.102043,-0.26395 -0.251953,-0.3418 -0.148286,-0.077 -0.327654,-0.11052 -0.529297,-0.11133 v -0.002 z m -5.337891,0.0117 c 0.202926,0 0.379732,0.0366 0.527344,0.11328 0.14726,0.0765 0.248047,0.19099 0.248047,0.33008 0,0.12788 -0.07812,0.24648 -0.201172,0.36133 l -0.08984,0.084 -0.05469,-0.11328 c -0.142791,-0.28559 -0.321373,-0.40625 -0.56836,-0.40625 -0.273765,0 -0.508166,0.13885 -0.724609,0.43945 h -0.0039 v 0.002 h -0.002 c -0.217414,0.3027 -0.324218,0.65307 -0.324218,1.0625 0,0.25632 0.06196,0.44631 0.18164,0.58593 0.120764,0.13851 0.275265,0.20508 0.488282,0.20508 0.370164,0 0.709629,-0.17237 1.03125,-0.53906 l 0.0957,-0.10938 0.05664,0.13477 c 0.02656,0.0629 0.04492,0.11454 0.04492,0.16992 0,0.10825 -0.05022,0.21286 -0.130859,0.30469 -0.0807,0.0919 -0.194953,0.17615 -0.341797,0.25781 -0.291936,0.16271 -0.596954,0.2461 -0.908203,0.2461 -0.341231,0 -0.625226,-0.1018 -0.832031,-0.3086 -0.205694,-0.20708 -0.308594,-0.49517 -0.308594,-0.83984 0,-0.53681 0.182264,-1.0074 0.535156,-1.39453 0.352878,-0.38712 0.785875,-0.58594 1.28125,-0.58594 z m 2.572266,0 c 0.164886,0 0.30226,0.0251 0.416015,0.082 h 0.002 c 0.112429,0.0552 0.195313,0.15208 0.195313,0.26563 0,0.10257 -0.04664,0.203 -0.121094,0.31054 l -0.08594,0.125 -0.07031,-0.13476 c -0.09687,-0.18705 -0.233869,-0.26758 -0.455078,-0.26758 -0.135045,0 -0.238445,0.038 -0.328125,0.11914 -0.08804,0.0796 -0.126953,0.16794 -0.126953,0.28516 0,0.0824 0.01639,0.13498 0.03516,0.16211 0.01107,0.0151 0.04333,0.0507 0.0957,0.10351 0.05237,0.0528 0.1256,0.12136 0.214844,0.20313 l 0.171875,0.1582 c 0.318681,0.29706 0.494141,0.57476 0.494141,0.8457 0,0.29201 -0.121867,0.54492 -0.351563,0.73633 -0.229826,0.19016 -0.520541,0.28711 -0.859375,0.28711 -0.230352,0 -0.430388,-0.056 -0.589844,-0.16992 -0.158045,-0.11392 -0.249999,-0.2753 -0.25,-0.45703 0,-0.15497 0.112656,-0.28698 0.292969,-0.42188 l 0.167969,-0.125 -0.01953,0.19727 c 0,0.18921 0.04863,0.32371 0.142578,0.42187 0.09499,0.0982 0.220754,0.14844 0.402344,0.14844 0.1585,0 0.287998,-0.0434 0.402343,-0.13672 0.114436,-0.0933 0.16211,-0.18992 0.16211,-0.30469 0,-0.0486 -0.03025,-0.12269 -0.0957,-0.21875 -0.06546,-0.0961 -0.16634,-0.21272 -0.306641,-0.34375 l -0.207031,-0.19336 c -0.276042,-0.25642 -0.429688,-0.5043 -0.429688,-0.75195 0,-0.26636 0.111005,-0.4985 0.31836,-0.66992 0.20738,-0.17146 0.47372,-0.25586 0.783203,-0.25586 z m 2.765625,0 c 0.202927,0 0.379732,0.0366 0.527343,0.11328 0.14726,0.0765 0.248047,0.19099 0.248047,0.33008 0,0.12794 -0.07619,0.24651 -0.199218,0.36133 l -0.0918,0.084 -0.05469,-0.11328 c -0.142792,-0.28559 -0.321373,-0.40625 -0.568359,-0.40625 -0.275173,0 -0.511147,0.13757 -0.728516,0.44141 -0.217415,0.3027 -0.324218,0.65307 -0.324219,1.0625 0,0.25628 0.05998,0.44628 0.179688,0.58593 0.120764,0.13851 0.275264,0.20508 0.488281,0.20508 0.370165,0 0.70963,-0.17237 1.03125,-0.53906 l 0.0957,-0.10938 0.05859,0.13477 c 0.02651,0.0628 0.04297,0.11439 0.04297,0.16992 0,0.10825 -0.05022,0.21286 -0.13086,0.30469 -0.08073,0.092 -0.193021,0.17616 -0.339843,0.25781 -0.29247,0.16341 -0.596319,0.2461 -0.908203,0.2461 -0.341232,0 -0.627195,-0.10181 -0.833985,-0.3086 -0.20568,-0.20706 -0.30664,-0.49515 -0.30664,-0.83984 0,-0.53682 0.180319,-1.00741 0.533203,-1.39453 0.352878,-0.38712 0.785874,-0.58594 1.28125,-0.58594 z m 3.40039,0.16797 -0.0078,0.008 h -0.002 c -0.190775,0.0359 -0.369618,0.0781 -0.621094,0.0781 h -0.564453 c -0.220233,0 -0.395272,0.005 -0.523438,0.0156 -0.06417,0.005 -0.118851,0.0138 -0.158203,0.0215 -0.01968,0.004 -0.03487,0.007 -0.04687,0.01 -0.012,0.003 -0.01908,0.006 -0.02344,0.008 h -0.002 c -0.01793,0.009 -0.03003,0.0345 -0.04297,0.0606 -0.01294,0.026 -0.02582,0.0538 -0.03906,0.0703 l 0.0078,0.01 c 0.0014,-5.7e-4 0.0025,-0.001 0.0039,-0.002 0.139314,-0.059 0.270856,-0.14455 0.419922,-0.14454 h 0.166016 l -0.222657,1.11914 h -0.136718 c -0.08442,0 -0.132589,0.0157 -0.154297,0.0332 0,0 -0.002,0.002 -0.002,0.002 0,0 -0.002,0.002 -0.002,0.002 -9.45e-4,0.001 -7.95e-4,0.004 -0.002,0.006 -0.0023,0.004 -0.005,0.007 -0.0078,0.0117 -0.0056,0.009 -0.01328,0.0204 -0.01563,0.0234 l -0.0098,0.0137 0.01758,-0.004 c 0.0014,-2.6e-4 0.0025,-0.002 0.0039,-0.002 0.05501,-0.0106 0.105191,-0.0352 0.158203,-0.0352 h 0.140625 l -0.148438,0.74804 c -0.04005,0.20656 -0.05859,0.34762 -0.05859,0.4043 0,0.11373 0.03381,0.17965 0.113282,0.23242 0.07993,0.0531 0.217514,0.0879 0.414062,0.0879 0.09783,0 0.244682,-0.0142 0.439453,-0.043 h 0.002 c 0.194867,-0.0274 0.331197,-0.0557 0.398438,-0.0781 0.02207,-0.007 0.03724,-0.0296 0.05078,-0.0527 0.01304,-0.0223 0.02356,-0.0461 0.03711,-0.0605 5.13e-4,-5.5e-4 0.0014,-0.001 0.002,-0.002 l -0.0059,-0.01 c -0.199435,0.0597 -0.393147,0.12695 -0.626953,0.12695 -0.170934,0 -0.304454,-0.0208 -0.408203,-0.0742 -0.103158,-0.0532 -0.171875,-0.15634 -0.171875,-0.26953 0,-0.0989 0.02192,-0.24402 0.0625,-0.44726 l 0.0957,-0.48829 0.01563,-0.0742 h 0.466797 c 0.12191,0 0.222599,-0.005 0.296875,-0.0137 0.03714,-0.004 0.06918,-0.009 0.0918,-0.0137 0.02261,-0.004 0.03523,-0.008 0.04297,-0.0117 0,0 0.002,-0.002 0.002,-0.002 0,0 0.002,0 0.002,0 0,0 0.002,-0.002 0.002,-0.002 0.0018,-0.002 0.0037,-0.005 0.0059,-0.008 0.0043,-0.006 0.01038,-0.0138 0.01563,-0.0215 0.0099,-0.0144 0.01899,-0.0301 0.02539,-0.0371 3.87e-4,-4.2e-4 0.0016,-0.002 0.002,-0.002 l 0.01563,-0.0156 -0.02148,0.006 c -0.137553,0.0294 -0.257206,0.0703 -0.433594,0.0703 H 51.93363 l 0.226562,-1.11914 h 0.685547 c 0.127584,0 0.234783,-0.005 0.314453,-0.0137 0.07967,-0.009 0.130321,-0.0196 0.152344,-0.0293 7.46e-4,-3.3e-4 0.0027,-10e-4 0.0039,-0.002 0.0012,-8.6e-4 0.0027,-0.003 0.0039,-0.004 0.0024,-0.002 0.0051,-0.003 0.0078,-0.006 0.0053,-0.006 0.01142,-0.0138 0.01758,-0.0215 0.01232,-0.0155 0.02507,-0.0321 0.0332,-0.0391 h 0.002 z m -8.738281,0.0156 c -0.01714,0 -0.02962,0.009 -0.04102,0.0176 -0.01139,0.009 -0.02156,0.0172 -0.0332,0.0176 v 0.0117 c 0.227333,0.0239 0.404302,0.17286 0.548828,0.38281 l 0.0059,0.008 0.0059,-0.008 c 0.02702,-0.0324 0.05287,-0.0643 0.07227,-0.0937 0.01939,-0.0294 0.03125,-0.0556 0.03125,-0.0762 0,-0.0287 -0.0066,-0.0567 -0.0293,-0.084 -0.02273,-0.0273 -0.05963,-0.0541 -0.117188,-0.084 -0.113636,-0.059 -0.25966,-0.089 -0.4375,-0.0898 v -0.002 z m 2.570313,0 c -0.01674,5.2e-4 -0.02982,0.006 -0.04102,0.0117 -0.0117,0.006 -0.0213,0.0128 -0.03516,0.0137 v 0.0117 c 0.188919,0.0123 0.321734,0.12837 0.439453,0.26368 l 0.0078,0.008 0.0039,-0.008 c 0.01198,-0.0244 0.02633,-0.0505 0.03711,-0.0742 0.01078,-0.0237 0.01758,-0.0456 0.01758,-0.0625 0,-0.0178 -0.0023,-0.0346 -0.01563,-0.0508 -0.01336,-0.0162 -0.03521,-0.0318 -0.07422,-0.0508 h -0.002 -0.0039 c -0.07817,-0.0383 -0.187632,-0.0625 -0.332031,-0.0625 -7.56e-4,0 -0.0012,-2e-5 -0.002,0 z m 2.767578,0 c -0.01714,0 -0.02962,0.009 -0.04102,0.0176 -0.01139,0.009 -0.02156,0.0172 -0.0332,0.0176 v 0.0117 c 0.227332,0.0239 0.404302,0.17286 0.548828,0.38281 l 0.0059,0.008 0.0059,-0.008 c 0.02702,-0.0324 0.05287,-0.0643 0.07227,-0.0937 0.01939,-0.0294 0.03125,-0.0556 0.03125,-0.0762 0,-0.0287 -0.0066,-0.0567 -0.0293,-0.084 -0.02273,-0.0273 -0.05963,-0.0541 -0.117188,-0.084 -0.113637,-0.059 -0.259661,-0.089 -0.4375,-0.0898 v -0.002 z m 3.378906,0.006 c -0.0078,0.009 -0.01526,0.0171 -0.02344,0.0274 -0.0061,0.008 -0.01261,0.0159 -0.01758,0.0215 -0.0025,0.003 -0.006,0.004 -0.0078,0.006 -9.23e-4,8.4e-4 -0.0013,0.003 -0.002,0.004 -0.0178,0.008 -0.07128,0.0188 -0.150391,0.0273 -0.07911,0.009 -0.185355,0.0156 -0.3125,0.0156 h -0.697266 l -0.230468,1.14257 h 0.521484 c 0.172089,0 0.291011,-0.0394 0.421875,-0.0684 -0.0067,0.009 -0.0142,0.0167 -0.02148,0.0274 -0.0052,0.008 -0.0096,0.016 -0.01367,0.0215 -0.002,0.003 -0.0045,0.004 -0.0059,0.006 0,0 0,0.002 0,0.002 0,0 -0.002,0 -0.002,0 -0.0049,0.002 -0.01979,0.006 -0.04102,0.01 -0.02218,0.004 -0.05102,0.01 -0.08789,0.0137 -0.07374,0.008 -0.17546,0.0156 -0.296875,0.0156 h -0.478516 l -0.01563,0.082 -0.0957,0.48828 c -0.04064,0.20354 -0.0625,0.35034 -0.0625,0.45117 0,0.11841 0.0685,0.22595 0.175782,0.28125 0.10668,0.055 0.244052,0.0742 0.416015,0.0742 0.231267,0 0.422506,-0.0664 0.617188,-0.125 -0.01253,0.016 -0.02434,0.0343 -0.03516,0.0527 -0.01322,0.0226 -0.02715,0.0416 -0.04297,0.0469 -0.06536,0.0218 -0.200084,0.0507 -0.394532,0.0781 h -0.002 -0.002 c -0.194444,0.0287 -0.340972,0.043 -0.4375,0.043 -0.194926,0 -0.329869,-0.0372 -0.40625,-0.0879 -0.07685,-0.051 -0.109375,-0.10957 -0.109375,-0.2207 0,-0.0537 0.01861,-0.19419 0.05859,-0.40039 l 0.152344,-0.76367 h -0.15625 c -0.05311,0 -0.101719,0.0218 -0.150391,0.0332 0.0022,-0.004 0.0035,-0.006 0.0059,-0.01 0.0028,-0.005 0.0056,-0.0102 0.0078,-0.0137 0.0011,-0.002 0.0032,-0.003 0.0039,-0.004 0.01729,-0.0139 0.06392,-0.0332 0.146485,-0.0332 h 0.148437 l 0.226563,-1.14257 H 51.78125 c -0.14984,-10e-6 -0.278368,0.0824 -0.412109,0.14062 0.01119,-0.0177 0.02119,-0.0364 0.03125,-0.0566 0.01278,-0.0257 0.02811,-0.0489 0.03906,-0.0547 0.0026,-0.001 0.0089,-0.003 0.01953,-0.006 0.01167,-0.003 0.02744,-0.008 0.04687,-0.0117 0.03887,-0.008 0.09259,-0.0161 0.15625,-0.0215 0.127498,-0.0107 0.303401,-0.0156 0.523438,-0.0156 H 52.75 c 0.246623,0 0.424113,-0.041 0.609375,-0.0762 z m -8.716797,0.006 c 0.17964,0 0.322656,0.0332 0.435547,0.0918 0.05669,0.0294 0.09231,0.0568 0.113281,0.082 0.02097,0.0252 0.0293,0.048 0.0293,0.0742 0,0.0143 -0.01235,0.0397 -0.03125,0.0684 -0.01777,0.027 -0.04323,0.0575 -0.06836,0.0879 -0.141993,-0.20315 -0.320077,-0.34495 -0.542969,-0.37305 0.01144,-0.003 0.0226,-0.007 0.03125,-0.0137 0.01132,-0.009 0.02125,-0.0176 0.0332,-0.0176 z m 2.572266,0 c 8.3e-4,0 0.0011,0 0.002,0 0.143343,2.8e-4 0.250792,0.0249 0.326172,0.0625 h 0.002 0.0039 c 0.03686,0.0181 0.0573,0.0335 0.06836,0.0469 0.01128,0.0137 0.01367,0.0265 0.01367,0.043 0,0.0122 -0.007,0.0335 -0.01758,0.0566 -0.0094,0.0207 -0.02213,0.0441 -0.0332,0.0664 -0.113843,-0.12942 -0.2494,-0.23649 -0.431641,-0.2539 0.01054,-0.003 0.02108,-0.005 0.0293,-0.01 0.01151,-0.006 0.02241,-0.0117 0.03711,-0.0117 z m 2.765625,0 c 0.17964,0 0.322655,0.0332 0.435547,0.0918 0.05669,0.0294 0.09231,0.0568 0.113281,0.082 0.02097,0.0252 0.0293,0.048 0.0293,0.0742 0,0.0143 -0.01236,0.0397 -0.03125,0.0684 -0.01777,0.027 -0.04323,0.0575 -0.06836,0.0879 -0.141992,-0.20315 -0.320077,-0.34495 -0.542968,-0.37305 0.01144,-0.003 0.0226,-0.007 0.03125,-0.0137 0.01132,-0.009 0.02125,-0.0176 0.0332,-0.0176 z m -3.351563,0.17578 c -0.0091,0.006 -0.02232,0.009 -0.03711,0.0117 -0.01479,0.002 -0.03083,0.004 -0.04297,0.0137 -0.171558,0.14183 -0.25,0.31069 -0.25,0.5293 0,0.16955 0.111887,0.37822 0.369141,0.61719 l 0.208984,0.19336 c 0.293317,0.27393 0.458984,0.48638 0.458984,0.69726 0,0.16355 -0.08352,0.31281 -0.21875,0.42969 -7.37e-4,6.4e-4 -0.0012,10e-4 -0.002,0.002 l 0.0078,0.01 c 0.0064,-0.005 0.01622,-0.006 0.02734,-0.008 0.01113,-0.002 0.02341,-0.004 0.0332,-0.0117 0.19473,-0.16227 0.285156,-0.35408 0.285156,-0.59766 0,-0.18889 -0.135484,-0.42979 -0.4375,-0.71094 l -0.169922,-0.15625 c -0.181887,-0.16663 -0.285534,-0.26768 -0.335937,-0.33789 v -0.002 c -0.04962,-0.0717 -0.06836,-0.16091 -0.06836,-0.26562 0,-0.15604 0.06751,-0.29399 0.179688,-0.40235 l -0.0078,-0.01 z m -0.0059,0.0156 c -0.107681,0.10884 -0.177735,0.24385 -0.177735,0.39844 0,0.10476 0.01823,0.19535 0.06836,0.26953 v 0.004 0.002 c 0.05198,0.0724 0.157881,0.17314 0.339844,0.33984 l 0.169921,0.15625 c 0.300686,0.27991 0.433594,0.51865 0.433594,0.70117 0,0.24031 -0.08887,0.42758 -0.28125,0.58789 -0.0061,0.005 -0.01629,0.006 -0.02734,0.008 -0.0059,8.9e-4 -0.01146,0.004 -0.01758,0.006 0.130217,-0.1171 0.216797,-0.2628 0.216797,-0.42578 0,-0.21777 -0.16889,-0.43246 -0.46289,-0.70703 l -0.208985,-0.19336 c -0.255853,-0.23767 -0.365234,-0.44373 -0.365234,-0.60742 0,-0.21545 0.07694,-0.37774 0.246094,-0.51758 0.0084,-0.007 0.02248,-0.009 0.03711,-0.0117 0.01002,-0.002 0.01952,-0.006 0.0293,-0.01 z m -2.695313,0.12305 c -0.06766,0.0404 -0.142975,0.0572 -0.21875,0.0801 -0.07577,0.0229 -0.152591,0.0528 -0.214843,0.1211 -0.324377,0.35585 -0.482422,0.77274 -0.482422,1.26953 0,0.30977 0.08563,0.53956 0.253906,0.70898 0.169674,0.16969 0.395506,0.25586 0.701172,0.25586 0.278253,0 0.549022,-0.074 0.816406,-0.22265 h 0.0039 0.002 c 0.134992,-0.0751 0.230814,-0.15023 0.291016,-0.21875 0.05833,-0.0664 0.07867,-0.12337 0.08008,-0.17774 4.5e-5,-0.002 0.002,-0.004 0.002,-0.006 v -0.0156 l -0.0098,0.0117 c -0.315609,0.30991 -0.655419,0.5332 -1.033203,0.5332 -0.2543,0 -0.470443,-0.0923 -0.625,-0.26953 -0.153216,-0.17874 -0.228516,-0.42004 -0.228516,-0.70703 0,-0.44224 0.121332,-0.83579 0.361328,-1.16992 0.04143,-0.0579 0.09219,-0.0825 0.146484,-0.10352 0.0543,-0.021 0.111403,-0.0375 0.16211,-0.0781 l 0.01563,-0.0117 h -0.01953 -0.002 z m 5.337891,0 c -0.06766,0.0404 -0.142975,0.0572 -0.21875,0.0801 -0.07578,0.0229 -0.152592,0.0528 -0.214844,0.1211 -0.324376,0.35585 -0.482422,0.77274 -0.482422,1.26953 0,0.30977 0.08563,0.53956 0.253907,0.70898 0.169691,0.16971 0.397458,0.25586 0.703125,0.25586 0.279492,0 0.551764,-0.0727 0.820312,-0.22265 0.134967,-0.0751 0.232719,-0.15018 0.292969,-0.21875 0.05837,-0.0665 0.07683,-0.12352 0.07813,-0.17774 4.1e-5,-0.002 0.002,-0.004 0.002,-0.006 v -0.0156 l -0.0098,0.0117 c -0.315608,0.30991 -0.655418,0.5332 -1.033203,0.5332 -0.2543,0 -0.470443,-0.0923 -0.625,-0.26953 -0.153216,-0.17874 -0.228515,-0.42004 -0.228515,-0.70703 0,-0.44224 0.121332,-0.83579 0.361328,-1.16992 0.04143,-0.0579 0.09219,-0.0825 0.146484,-0.10352 0.0543,-0.021 0.111403,-0.0375 0.162109,-0.0781 z m -5.453125,0.0566 c -0.01471,0.006 -0.02818,0.0138 -0.04297,0.0195 -0.05503,0.0213 -0.110909,0.0487 -0.154297,0.10937 -0.241649,0.33644 -0.361328,0.7331 -0.361328,1.17774 0,0.28926 0.07284,0.53324 0.228516,0.71484 0.157104,0.18017 0.379221,0.27344 0.636719,0.27344 0.377278,0 0.712649,-0.22351 1.02539,-0.52735 -0.0031,0.0488 -0.02188,0.10028 -0.07617,0.16211 -0.05876,0.0669 -0.153056,0.14031 -0.287109,0.21485 h -0.002 c -0.266841,0.14904 -0.535325,0.22265 -0.8125,0.22265 -0.303189,0 -0.526258,-0.0848 -0.69336,-0.25195 -0.165637,-0.16676 -0.25,-0.39383 -0.25,-0.70117 0,-0.49395 0.158102,-0.90807 0.480469,-1.26172 0.05999,-0.0658 0.131983,-0.0945 0.207031,-0.11719 0.03382,-0.0102 0.06754,-0.0246 0.101563,-0.0352 z m 5.333984,0 c -0.01363,0.005 -0.02538,0.0142 -0.03906,0.0195 -0.05503,0.0213 -0.110909,0.0487 -0.154297,0.10937 -0.241648,0.33644 -0.361328,0.7331 -0.361328,1.17774 0,0.28926 0.07284,0.53324 0.228515,0.71484 0.157104,0.18017 0.379222,0.27344 0.636719,0.27344 0.377279,0 0.712649,-0.22351 1.025391,-0.52735 -0.0029,0.0489 -0.02,0.10035 -0.07422,0.16211 -0.05871,0.0668 -0.154986,0.1403 -0.289062,0.21485 -0.266841,0.14904 -0.535325,0.22265 -0.8125,0.22265 -0.30319,0 -0.528231,-0.0849 -0.695313,-0.25195 -0.165638,-0.16676 -0.25,-0.39383 -0.25,-0.70117 0,-0.49395 0.160055,-0.90807 0.482422,-1.26172 0.05999,-0.0658 0.131983,-0.0945 0.207031,-0.11719 0.03234,-0.01 0.06314,-0.0252 0.0957,-0.0352 z m -3.208984,1.91992 -0.02539,0.004 v 0.004 c -0.02385,0.028 -0.05289,0.0598 -0.07813,0.0879 -0.01291,0.0144 -0.02481,0.0269 -0.0332,0.0391 -0.0084,0.0122 -0.01367,0.0228 -0.01367,0.0332 0,0.12602 0.04776,0.22059 0.169922,0.30859 0.123583,0.0882 0.282617,0.13281 0.484375,0.13281 0.02527,0 0.04506,-0.009 0.0625,-0.0176 0.01744,-0.009 0.03203,-0.0177 0.05273,-0.0195 v -0.0117 c -0.201751,-0.007 -0.379459,-0.0628 -0.503907,-0.1914 h -0.002 c -4.07e-4,-4.3e-4 4.04e-4,-0.002 0,-0.002 -0.0823,-0.0872 -0.09457,-0.2266 -0.123047,-0.35547 z m -0.01953,0.0215 c 0.02736,0.12667 0.03864,0.26523 0.125,0.35547 h 0.002 v 0.002 h 0.0039 c 0.123409,0.12555 0.297502,0.17745 0.492188,0.1875 -0.01532,0.004 -0.03042,0.007 -0.04297,0.0137 -0.0172,0.009 -0.03445,0.0176 -0.05664,0.0176 -0.199759,0 -0.355581,-0.0464 -0.476562,-0.13281 -0.119929,-0.0864 -0.166016,-0.17418 -0.166016,-0.29687 0,-0.005 0.0039,-0.0141 0.01172,-0.0254 0.0078,-0.0113 0.02046,-0.0249 0.0332,-0.0391 0.02317,-0.0258 0.05075,-0.0551 0.07422,-0.082 z"
               id="path51" /></g></g></g><text
         xml:space="preserve"
         style="font-style:normal;font-variant:normal;font-weight:normal;font-stretch:normal;font-size:2.64583px;font-family:'Lucida Handwriting';-inkscape-font-specification:'Lucida Handwriting, Normal';font-variant-ligatures:normal;font-variant-caps:normal;font-variant-numeric:normal;font-variant-east-asian:normal;text-align:center;letter-spacing:0.264583px;word-spacing:0px;text-anchor:middle;opacity:0.54;fill:#ffffff;fill-opacity:1;stroke:none;stroke-width:0.529167;stroke-dasharray:none;stroke-opacity:1"
         x="-78.281067"
         y="162.37128"
         id="text67"
         transform="rotate(-42.243524)"><tspan
           sodipodi:role="line"
           id="tspan67"
           style="fill:#ffffff;stroke-width:0.529167"
           x="-78.148773"
           y="162.37128">{}</tspan></text><text
         xml:space="preserve"
         style="font-style:normal;font-variant:normal;font-weight:normal;font-stretch:normal;font-size:2.64583px;font-family:'Lucida Handwriting';-inkscape-font-specification:'Lucida Handwriting, Normal';font-variant-ligatures:normal;font-variant-caps:normal;font-variant-numeric:normal;font-variant-east-asian:normal;text-align:center;letter-spacing:0.264583px;word-spacing:0px;text-anchor:middle;opacity:0.54;fill:#ffffff;fill-opacity:1;stroke:none;stroke-width:0.529167;stroke-dasharray:none;stroke-opacity:1"
         x="-161.95886"
         y="85.606964"
         id="text68"
         transform="matrix(-0.74029412,-0.67228314,-0.67228314,0.74029412,0,0)"><tspan
           sodipodi:role="line"
           id="tspan68"
           style="fill:#ffffff;stroke-width:0.529167"
           x="-161.82657"
           y="85.606964">()</tspan></text><text
         xml:space="preserve"
         style="font-style:normal;font-variant:normal;font-weight:normal;font-stretch:normal;font-size:1.05833px;font-family:'Lucida Handwriting';-inkscape-font-specification:'Lucida Handwriting, Normal';font-variant-ligatures:normal;font-variant-caps:normal;font-variant-numeric:normal;font-variant-east-asian:normal;text-align:center;letter-spacing:0.264583px;word-spacing:0px;text-anchor:middle;opacity:0.54;fill:#ffffff;fill-opacity:1;stroke:none;stroke-width:0.529167;stroke-dasharray:none;stroke-opacity:1"
         x="144.21591"
         y="111.76553"
         id="text69"
         transform="rotate(35.700024)"><tspan
           sodipodi:role="line"
           id="tspan69"
           style="font-size:1.05833px;stroke-width:0.529167"
           x="144.34821"
           y="111.76553">int</tspan></text><text
         xml:space="preserve"
         style="font-style:normal;font-variant:normal;font-weight:normal;font-stretch:normal;font-size:1.5875px;font-family:'Lucida Handwriting';-inkscape-font-specification:'Lucida Handwriting, Normal';font-variant-ligatures:normal;font-variant-caps:normal;font-variant-numeric:normal;font-variant-east-asian:normal;text-align:center;letter-spacing:0.264583px;word-spacing:0px;text-anchor:middle;opacity:0.54;fill:#ffffff;fill-opacity:1;stroke:none;stroke-width:0.529167;stroke-dasharray:none;stroke-opacity:1"
         x="56.864685"
         y="178.42023"
         id="text70"><tspan
           sodipodi:role="line"
           id="tspan70"
           style="font-size:1.5875px;stroke-width:0.529167"
           x="56.996975"
           y="178.42023">[]</tspan></text><text
         xml:space="preserve"
         style="font-style:normal;font-variant:normal;font-weight:normal;font-stretch:normal;font-size:1.05833px;font-family:'Lucida Handwriting';-inkscape-font-specification:'Lucida Handwriting, Normal';font-variant-ligatures:normal;font-variant-caps:normal;font-variant-numeric:normal;font-variant-east-asian:normal;text-align:center;letter-spacing:0.264583px;word-spacing:0px;text-anchor:middle;opacity:0.54;fill:#ffffff;fill-opacity:1;stroke:none;stroke-width:0.529167;stroke-dasharray:none;stroke-opacity:1"
         x="56.528141"
         y="175.54015"
         id="text71"><tspan
           sodipodi:role="line"
           id="tspan71"
           style="font-size:1.05833px;stroke-width:0.529167"
           x="56.660431"
           y="175.54015">class</tspan></text><text
         xml:space="preserve"
         style="font-style:normal;font-variant:normal;font-weight:normal;font-stretch:normal;font-size:1.05833px;font-family:'Lucida Handwriting';-inkscape-font-specification:'Lucida Handwriting, Normal';font-variant-ligatures:normal;font-variant-caps:normal;font-variant-numeric:normal;font-variant-east-asian:normal;text-align:center;letter-spacing:0.264583px;word-spacing:0px;text-anchor:middle;opacity:0.54;fill:#ffffff;fill-opacity:1;stroke:none;stroke-width:0.529167;stroke-dasharray:none;stroke-opacity:1"
         x="-88.843475"
         y="162.51707"
         id="text72"
         transform="rotate(-47.961309)"
         inkscape:transform-center-x="0.11285862"
         inkscape:transform-center-y="0.042370416"><tspan
           sodipodi:role="line"
           id="tspan72"
           style="font-size:1.05833px;stroke-width:0.529167"
           x="-88.711182"
           y="162.51707">new</tspan></text><text
         xml:space="preserve"
         style="font-style:normal;font-variant:normal;font-weight:normal;font-stretch:normal;font-size:0.681645px;font-family:'Lucida Handwriting';-inkscape-font-specification:'Lucida Handwriting, Normal';font-variant-ligatures:normal;font-variant-caps:normal;font-variant-numeric:normal;font-variant-east-asian:normal;text-align:center;letter-spacing:0.170412px;word-spacing:0px;text-anchor:middle;opacity:0.54;fill:#ffffff;fill-opacity:1;stroke:none;stroke-width:0.340824;stroke-dasharray:none;stroke-opacity:1"
         x="54.840847"
         y="176.66409"
         id="text73"><tspan
           sodipodi:role="line"
           id="tspan73"
           style="font-size:0.681645px;stroke-width:0.340824"
           x="54.926052"
           y="176.66409">delete</tspan></text><text
         xml:space="preserve"
         style="font-style:normal;font-variant:normal;font-weight:normal;font-stretch:normal;font-size:0.681645px;font-family:'Lucida Handwriting';-inkscape-font-specification:'Lucida Handwriting, Normal';font-variant-ligatures:normal;font-variant-caps:normal;font-variant-numeric:normal;font-variant-east-asian:normal;text-align:center;letter-spacing:0.170412px;word-spacing:0px;text-anchor:middle;opacity:0.54;fill:#ffffff;fill-opacity:1;stroke:none;stroke-width:0.340824;stroke-dasharray:none;stroke-opacity:1"
         x="58.237579"
         y="176.63171"
         id="text74"><tspan
           sodipodi:role="line"
           id="tspan74"
           style="font-size:0.681645px;stroke-width:0.340824"
           x="58.322784"
           y="176.63171">bool</tspan></text><text
         xml:space="preserve"
         style="font-style:normal;font-variant:normal;font-weight:normal;font-stretch:normal;font-size:0.749329px;font-family:'Lucida Handwriting';-inkscape-font-specification:'Lucida Handwriting, Normal';font-variant-ligatures:normal;font-variant-caps:normal;font-variant-numeric:normal;font-variant-east-asian:normal;text-align:center;letter-spacing:0.187333px;word-spacing:0px;text-anchor:middle;opacity:0.54;fill:#ffffff;fill-opacity:1;stroke:none;stroke-width:0.374666;stroke-dasharray:none;stroke-opacity:1"
         x="-77.515442"
         y="158.47241"
         id="text75"
         transform="rotate(-43.167195)"><tspan
           sodipodi:role="line"
           id="tspan75"
           style="font-size:0.749329px;stroke-width:0.374666"
           x="-77.421776"
           y="158.47241">double</tspan></text><text
         xml:space="preserve"
         style="font-style:normal;font-variant:normal;font-weight:normal;font-stretch:normal;font-size:0.749329px;font-family:'Lucida Handwriting';-inkscape-font-specification:'Lucida Handwriting, Normal';font-variant-ligatures:normal;font-variant-caps:normal;font-variant-numeric:normal;font-variant-east-asian:normal;text-align:center;letter-spacing:0.187333px;word-spacing:0px;text-anchor:middle;opacity:0.54;fill:#ffffff;fill-opacity:1;stroke:none;stroke-width:0.374666;stroke-dasharray:none;stroke-opacity:1"
         x="55.240456"
         y="169.05292"
         id="text76"
         transform="rotate(-1.3009192)"><tspan
           sodipodi:role="line"
           id="tspan76"
           style="font-size:0.749329px;stroke-width:0.374666"
           x="55.334122"
           y="169.05292">return</tspan></text><text
         xml:space="preserve"
         style="font-style:normal;font-variant:normal;font-weight:normal;font-stretch:normal;font-size:2.64583px;font-family:'Lucida Handwriting';-inkscape-font-specification:'Lucida Handwriting, Normal';font-variant-ligatures:normal;font-variant-caps:normal;font-variant-numeric:normal;font-variant-east-asian:normal;text-align:center;letter-spacing:0.187333px;word-spacing:0px;text-anchor:middle;opacity:0.54;fill:#ffffff;fill-opacity:1;stroke:none;stroke-width:0.374666;stroke-dasharray:none;stroke-opacity:1"
         x="54.434326"
         y="169.22015"
         id="text77"
         transform="rotate(-1.3009192)"><tspan
           sodipodi:role="line"
           id="tspan77"
           style="font-size:2.64583px;stroke-width:0.374666"
           x="54.527992"
           y="169.22015">*</tspan></text><text
         xml:space="preserve"
         style="font-style:normal;font-variant:normal;font-weight:normal;font-stretch:normal;font-size:1.26315px;font-family:'Lucida Handwriting';-inkscape-font-specification:'Lucida Handwriting, Normal';font-variant-ligatures:normal;font-variant-caps:normal;font-variant-numeric:normal;font-variant-east-asian:normal;text-align:center;letter-spacing:0.149058px;word-spacing:0px;text-anchor:middle;opacity:0.54;fill:#ffffff;fill-opacity:1;stroke:none;stroke-width:0.298117;stroke-dasharray:none;stroke-opacity:1"
         x="25.471554"
         y="173.5804"
         id="text78"
         transform="rotate(-10.76733)"><tspan
           sodipodi:role="line"
           id="tspan78"
           style="font-size:1.26315px;stroke-width:0.298117"
           x="25.546083"
           y="173.5804">&amp;</tspan></text><text
         xml:space="preserve"
         style="font-style:normal;font-variant:normal;font-weight:normal;font-stretch:normal;font-size:0.52756px;font-family:'Lucida Handwriting';-inkscape-font-specification:'Lucida Handwriting, Normal';font-variant-ligatures:normal;font-variant-caps:normal;font-variant-numeric:normal;font-variant-east-asian:normal;text-align:center;letter-spacing:0.131891px;word-spacing:0px;text-anchor:middle;opacity:0.54;fill:#ffffff;fill-opacity:1;stroke:none;stroke-width:0.263781;stroke-dasharray:none;stroke-opacity:1"
         x="51.365097"
         y="167.81462"
         id="text79"
         transform="rotate(-1.3009192)"><tspan
           sodipodi:role="line"
           id="tspan79"
           style="font-size:0.52756px;stroke-width:0.263781"
           x="51.431042"
           y="167.81462">explicit</tspan></text><text
         xml:space="preserve"
         style="font-style:normal;font-variant:normal;font-weight:normal;font-stretch:normal;font-size:0.52756px;font-family:'Lucida Handwriting';-inkscape-font-specification:'Lucida Handwriting, Normal';font-variant-ligatures:normal;font-variant-caps:normal;font-variant-numeric:normal;font-variant-east-asian:normal;text-align:center;letter-spacing:0.131891px;word-spacing:0px;text-anchor:middle;opacity:0.54;fill:#ffffff;fill-opacity:1;stroke:none;stroke-width:0.263781;stroke-dasharray:none;stroke-opacity:1"
         x="-52.178658"
         y="166.33264"
         id="text80"
         transform="rotate(-36.086632)"><tspan
           sodipodi:role="line"
           id="tspan80"
           style="font-size:0.52756px;stroke-width:0.263781"
           x="-52.112713"
           y="166.33264">static</tspan></text><text
         xml:space="preserve"
         style="font-style:normal;font-variant:normal;font-weight:normal;font-stretch:normal;font-size:1.26315px;font-family:'Lucida Handwriting';-inkscape-font-specification:'Lucida Handwriting, Normal';font-variant-ligatures:normal;font-variant-caps:normal;font-variant-numeric:normal;font-variant-east-asian:normal;text-align:center;letter-spacing:0.149058px;word-spacing:0px;text-anchor:middle;opacity:0.54;fill:#ffffff;fill-opacity:1;stroke:none;stroke-width:0.298117;stroke-dasharray:none;stroke-opacity:1"
         x="22.836113"
         y="175.22333"
         id="text81"
         transform="rotate(-10.76733)"><tspan
           sodipodi:role="line"
           id="tspan81"
           style="font-size:1.26315px;stroke-width:0.298117"
           x="22.910643"
           y="175.22333">::</tspan></text></g></g></svg>
